<svg width="111" height="44" viewBox="0 0 111 44" fill="none" xmlns="http://www.w3.org/2000/svg">
<path d="M24.5483 34.6337L19.1421 44V25.2675L24.5483 34.6337Z" fill="#838EFC"/>
<path d="M38.0681 33.0715L32.6601 42.4396L19.142 19.0221L19.1016 19.0925V0.359947L19.142 0.289551L38.0681 33.0715Z" fill="#838EFC"/>
<path d="M19.1418 25.2673V43.9999L13.7339 34.6336L19.1418 25.2673Z" fill="white"/>
<path d="M19.1012 0.359924V19.0925L5.62182 42.4395L0.213867 33.0715L19.1012 0.359924Z" fill="white"/>
<path d="M49.3623 32.7004L58.3873 10.7238H60.5406L69.5023 32.7004H66.2723L58.8623 14.1121H60.0023L52.5606 32.7004H49.3623ZM53.669 27.7287V25.132H65.2273V27.7287H53.669Z" fill="white"/>
<path d="M76.8175 33.017C75.2975 33.017 73.9411 32.674 72.7483 31.9879C71.5555 31.3018 70.6108 30.3676 69.9141 29.1854C69.2175 28.0032 68.8691 26.6626 68.8691 25.1637C68.8691 23.6649 69.2122 22.3559 69.8983 21.1737C70.5844 19.9915 71.5133 19.0574 72.685 18.3712C73.8566 17.6851 75.1708 17.3421 76.6275 17.3421C77.9997 17.3421 79.2241 17.6588 80.3008 18.2921C81.3774 18.9254 82.2166 19.8015 82.8183 20.9204C83.4199 22.0393 83.7208 23.3165 83.7208 24.7521C83.7208 24.9632 83.7102 25.1901 83.6891 25.4329C83.668 25.6757 83.6258 25.9448 83.5624 26.2404H70.8641V23.8654H82.0424L80.9974 24.7837C80.9974 23.7704 80.818 22.9101 80.4591 22.2029C80.1002 21.4957 79.5936 20.9468 78.9391 20.5562C78.2847 20.1657 77.493 19.9704 76.5641 19.9704C75.6352 19.9704 74.738 20.1815 73.9991 20.6037C73.2602 21.0259 72.6902 21.6171 72.2891 22.3771C71.888 23.1371 71.6875 24.0343 71.6875 25.0687C71.6875 26.1032 71.8986 27.0479 72.3208 27.8396C72.743 28.6312 73.3447 29.2434 74.1258 29.6762C74.9069 30.109 75.8041 30.3254 76.8175 30.3254C77.6619 30.3254 78.4377 30.1776 79.1449 29.882C79.8522 29.5865 80.4591 29.1432 80.9658 28.5521L82.8024 30.4204C82.0635 31.2648 81.1769 31.9087 80.1424 32.352C79.108 32.7954 77.9997 33.017 76.8175 33.017Z" fill="white"/>
<path d="M85.2388 32.7004V17.6587H88.0888V32.7004H85.2388ZM88.0888 24.1504L87.0121 23.6437C87.0121 21.7226 87.4554 20.1921 88.3421 19.0521C89.2288 17.9121 90.506 17.3421 92.1738 17.3421C92.9337 17.3421 93.6199 17.474 94.2321 17.7379C94.8443 18.0018 95.4143 18.4399 95.9421 19.0521L94.0737 20.9838C93.7571 20.646 93.4087 20.4032 93.0287 20.2554C92.6487 20.1076 92.2054 20.0337 91.6988 20.0337C90.6432 20.0337 89.7777 20.3715 89.1021 21.0471C88.4265 21.7226 88.0888 22.7571 88.0888 24.1504Z" fill="white"/>
<path d="M102.719 33.017C101.262 33.017 99.9425 32.6687 98.7603 31.9721C97.5781 31.2754 96.6386 30.3306 95.942 29.1379C95.2453 27.9451 94.897 26.6098 94.897 25.132C94.897 23.6543 95.2453 22.3612 95.942 21.1896C96.6386 20.0179 97.5781 19.0838 98.7603 18.3871C99.9425 17.6904 101.262 17.3421 102.719 17.3421C104.175 17.3421 105.532 17.6851 106.724 18.3712C107.917 19.0574 108.862 19.9915 109.559 21.1737C110.255 22.3559 110.604 23.6754 110.604 25.132C110.604 26.5887 110.255 27.9451 109.559 29.1379C108.862 30.3306 107.917 31.2754 106.724 31.9721C105.532 32.6687 104.196 33.017 102.719 33.017ZM102.719 30.2621C103.69 30.2621 104.545 30.0404 105.284 29.5971C106.023 29.1537 106.603 28.5468 107.025 27.7762C107.448 27.0057 107.659 26.1243 107.659 25.132C107.659 24.1398 107.442 23.2954 107.009 22.5354C106.577 21.7754 105.996 21.179 105.268 20.7462C104.539 20.3135 103.69 20.0971 102.719 20.0971C101.748 20.0971 100.956 20.3135 100.217 20.7462C99.4781 21.179 98.8975 21.7754 98.4753 22.5354C98.0531 23.2954 97.842 24.1609 97.842 25.132C97.842 26.1032 98.0531 27.0057 98.4753 27.7762C98.8975 28.5468 99.4781 29.1537 100.217 29.5971C100.956 30.0404 101.79 30.2621 102.719 30.2621Z" fill="white"/>
</svg>
