<svg xmlns="http://www.w3.org/2000/svg" xmlns:xlink="http://www.w3.org/1999/xlink" width="2050px" height="960px" viewBox="0 0 1240 960" version="1.1">
  <defs/>
  <g id="Home" stroke="none" stroke-width="1" fill="none" fill-rule="evenodd" opacity="0.40000000">
    <g id="19/01/18-Bitcoin.org-ver3-Desktop-1200px--" transform="translate(0.000000, -3077.000000)">
      <g id="//Footer" transform="translate(0.000000, 3078.000000)">
        <g id="ver-3-Footer-bg">
          <g id="Group-15">
            <g>
              <g id="Group-14" opacity="0.5" stroke="#979797">
                <path xmlns="http://www.w3.org/2000/svg" d="M694,338 L835,169" id="Path-19"/>
                <path xmlns="http://www.w3.org/2000/svg" d="M1172,124 L895,473" id="Path-19"/>
                <path xmlns="http://www.w3.org/2000/svg" d="M1175,124 L1318,273" id="Path-19"/>
                <path xmlns="http://www.w3.org/2000/svg" d="M856,607 L895,473" id="Path-19"/>
                <path xmlns="http://www.w3.org/2000/svg" d="M1185,518 L898,473" id="Path-19"/>
                <path xmlns="http://www.w3.org/2000/svg" d="M1582,15 L1693,216" id="Path-19"/>
                <path xmlns="http://www.w3.org/2000/svg" d="M1561,705 L1693,587" id="Path-19"/>
                <path xmlns="http://www.w3.org/2000/svg" d="M1392,435 L1693,536" id="Path-19"/>
                <path xmlns="http://www.w3.org/2000/svg" d="M1392,435 L1693,216" id="Path-19"/>
                <path xmlns="http://www.w3.org/2000/svg" d="M1392,435 L1321,277" id="Path-19"/>
                <path xmlns="http://www.w3.org/2000/svg" d="M1391,435 L1187,517" id="Path-19"/>
                <path xmlns="http://www.w3.org/2000/svg" d="M1185,518 L1319,277" id="Path-19"/>
                <path xmlns="http://www.w3.org/2000/svg" d="M1256,604 L1086,727" id="Path-19"/>
                <path xmlns="http://www.w3.org/2000/svg" d="M1313,943 L1086,727" id="Path-19"/>
                <path xmlns="http://www.w3.org/2000/svg" d="M948,826 L1086,727" id="Path-19"/>
                <path xmlns="http://www.w3.org/2000/svg" d="M1185,518 L1255,602" id="Path-19"/>
                <path xmlns="http://www.w3.org/2000/svg" d="M1185,518 L1086,727" id="Path-19"/>
                <path xmlns="http://www.w3.org/2000/svg" d="M836,170 L896,473" id="Path-19"/>
                <path xmlns="http://www.w3.org/2000/svg" d="M694,338 L898,473" id="Path-19"/>
                <polyline id="Path-21" points="835 171 1174 120 1389 44 1473 160"/>
                <polyline id="Path-22" points="1583 16 1387 44 1200 0 1173 119 1147 0 835 171"/>
                <polyline id="Path-23" points="761 0 665 50 835 171"/>
                <path d="M664,50 L659,0" id="Path-24"/>
              </g>
              <g id="dots" transform="translate(1308, 262)">
                <circle id="Oval-2" fill="#b832c8" cx="12.5" cy="12.5" r="3.5"/>
                <circle id="Oval-2" stroke="#b832c8" cx="12.5" cy="12.5" r="12.5"/>
              </g>
              <g xmlns="http://www.w3.org/2000/svg" id="dots" transform="translate(1169, 450)">
                <circle id="Oval-2" fill="#b832c8" cx="17.5" cy="67.5" r="5.5"/>
                <circle id="Oval-2" stroke="#b832c8" cx="17.5" cy="67.5" r="17.5"/>
              </g>
              <g xmlns="http://www.w3.org/2000/svg" id="dots" transform="translate(675.000000, 270.000000)">
                <circle id="Oval-2" fill="#b832c8" cx="17.5" cy="67.5" r="5.5"/>
                <circle id="Oval-2" stroke="#b832c8" cx="17.5" cy="67.5" r="17.5"/>
              </g>
              <g id="dots" transform="translate(1161.000000, 108.000000)">
                <circle id="Oval-2" fill="#C4C4C4" cx="12.5" cy="12.5" r="3.5"/>
                <circle id="Oval-2" stroke="#CACACA" cx="12.5" cy="12.5" r="12.5"/>
              </g>
              <g id="dots" opacity="0.699999988" transform="translate(1461.000000, 148.000000)">
                <circle id="Oval-2" fill="#C4C4C4" cx="12.5" cy="12.5" r="3.5"/>
                <circle id="Oval-2" stroke="#CACACA" cx="12.5" cy="12.5" r="12.5"/>
              </g>
              <g xmlns="http://www.w3.org/2000/svg" id="dots" transform="translate(1379, 423)">
                <circle id="Oval-2" fill="#C4C4C4" cx="12.5" cy="12.5" r="3.5"/>
                <circle id="Oval-2" stroke="#CACACA" cx="12.5" cy="12.5" r="12.5"/>
              </g>
              <g xmlns="http://www.w3.org/2000/svg" id="dots" transform="translate(1243, 591)">
                <circle id="Oval-2" fill="#C4C4C4" cx="12.5" cy="12.5" r="3.5"/>
                <circle id="Oval-2" stroke="#CACACA" cx="12.5" cy="12.5" r="12.5"/>
              </g>
              <g xmlns="http://www.w3.org/2000/svg" id="dots" transform="translate(1546, 694)">
                <circle id="Oval-2" fill="#b832c8" cx="12.5" cy="12.5" r="3.5"/>
                <circle id="Oval-2" stroke="#b832c8" cx="12.5" cy="12.5" r="12.5"/>
              </g><g xmlns="http://www.w3.org/2000/svg" id="dots" transform="translate(936, 813)">
                <circle id="Oval-2" fill="#C4C4C4" cx="12.5" cy="12.5" r="3.5"/>
                <circle id="Oval-2" stroke="#CACACA" cx="12.5" cy="12.5" r="12.5"/>
              </g>
              <g xmlns="http://www.w3.org/2000/svg" id="dots" transform="translate(1303, 933)">
                <circle id="Oval-2" fill="#C4C4C4" cx="12.5" cy="12.5" r="3.5"/>
                <circle id="Oval-2" stroke="#CACACA" cx="12.5" cy="12.5" r="12.5"/>
              </g>
              <g xmlns="http://www.w3.org/2000/svg" id="dots" transform="translate(845, 592)">
                <circle id="Oval-2" fill="#C4C4C4" cx="12.5" cy="12.5" r="3.5"/>
                <circle id="Oval-2" stroke="#CACACA" cx="12.5" cy="12.5" r="12.5"/>
              </g>
              <g id="dots" transform="translate(652.000000, 36.000000)">
                <circle id="Oval-2" fill="#C4C4C4" cx="12.5" cy="12.5" r="3.5"/>
                <circle id="Oval-2" stroke="#CACACA" cx="12.5" cy="12.5" r="12.5"/>
              </g>
              <g id="dots" transform="translate(882, 459)">
                <circle id="Oval-2" fill="#b832c8" cx="12.5" cy="12.5" r="3.5"/>
                <circle id="Oval-2" stroke="#b832c8" cx="12.5" cy="12.5" r="12.5"/>
              </g>
              <g id="dots" transform="translate(1569.000000, 2.000000)">
                <circle id="Oval-2" fill="#b832c8" cx="12.5" cy="12.5" r="3.5"/>
                <circle id="Oval-2" stroke="#b832c8" cx="12.5" cy="12.5" r="12.5"/>
              </g>
              <g xmlns="http://www.w3.org/2000/svg" id="dots" transform="translate(1073, 715)">
                <circle id="Oval-2" fill="#b832c8" cx="12.5" cy="12.5" r="3.5"/>
                <circle id="Oval-2" stroke="#b832c8" cx="12.5" cy="12.5" r="12.5"/>
              </g><g xmlns="http://www.w3.org/2000/svg" id="dots" transform="translate(823.000000, 158.000000)">
                <circle id="Oval-2" fill="#b832c8" cx="12.5" cy="12.5" r="3.5"/>
                <circle id="Oval-2" stroke="#b832c8" cx="12.5" cy="12.5" r="12.5"/>
              </g>

            </g>
          </g>
        </g>
      </g>
    </g>
  </g>
</svg>
