<svg width="659" height="105" viewBox="0 0 659 105" fill="none" xmlns="http://www.w3.org/2000/svg">
<path d="M218.305 103.551C215.999 103.551 212.703 102.994 210.129 100.357C207.668 97.8258 206.416 93.9682 206.416 88.8961V86.7186C206.416 86.7186 199.15 103.551 183.057 103.551C173.105 103.551 166.155 96.2475 166.155 85.7876V48.833C166.155 42.4768 164.55 36.8911 161.816 33.5793C168.322 33.1512 175.245 31.1609 181.12 28.031V82.8663C181.12 86.3815 182.238 89.3616 184.367 91.4857C186.294 93.4118 188.899 94.4765 191.692 94.4765C195.903 94.4765 199.76 92.2187 202.27 88.2862C204.902 84.1825 206.411 78.1153 206.411 71.6414V48.8437C206.411 42.311 204.902 36.8376 202.238 33.5739C208.749 33.1459 215.678 31.1556 221.552 28.0256V85.2847C221.552 94.1555 225.634 96.4347 228.524 96.9323C227.095 100.094 224.185 103.556 218.305 103.556V103.551Z" fill="white"/>
<path d="M266.516 103.545C263.338 103.545 258.491 102.17 254.729 100.206C252.632 99.1307 249.663 98.1837 246.308 98.1837C240.883 98.1837 236.972 100.752 233.35 102.753V22.1183C233.355 15.5696 231.803 10.0962 229.069 6.84855C235.634 6.42587 242.402 4.47301 248.336 1.29492V42.1178C248.336 42.1178 256.26 27.1797 271.717 27.1797C277.57 27.1797 282.481 29.0684 286.73 32.9527C293.22 39.0093 297.093 50.2235 297.093 62.9412C297.264 74.2143 293.926 85.3377 288.158 92.7104C282.717 99.7942 275.237 103.539 266.527 103.539L266.516 103.545ZM263.723 34.5364C263.568 34.5364 263.413 34.5364 263.252 34.5418C255.719 34.7344 248.325 44.06 248.325 53.0592V81.1537C248.325 91.0839 256.024 101.667 268.095 101.667C268.763 101.667 269.448 101.613 270.117 101.506C275.505 100.677 279.373 96.6857 281.62 89.6393C283.519 83.3901 284.06 74.1341 283.102 64.2467C282.225 57.4465 280.299 48.062 276.093 41.8663C272.953 37.0671 268.672 34.5257 263.723 34.5257V34.5364Z" fill="white"/>
<path d="M620.638 103.577C613.961 103.577 607.375 101.79 601.58 98.4144C592.731 93.3851 586.401 85.2045 583.758 75.376C581.104 65.526 582.48 55.2481 587.616 46.4415C594.432 34.644 607.08 27.3141 620.627 27.3141C627.299 27.3141 633.917 29.1011 639.765 32.4825C657.924 42.9103 664.184 66.2269 653.724 84.4608C646.913 96.2582 634.238 103.583 620.643 103.583L620.638 103.577ZM609.381 31.7281C606.749 31.7281 604.346 32.3434 602.238 33.5633C591.88 39.5503 591.703 58.7472 601.842 76.3551C609.697 89.993 621.799 99.1634 631.959 99.1634C634.592 99.1634 636.994 98.5482 639.102 97.3283C649.449 91.3306 649.626 72.139 639.498 54.5365C631.638 40.8932 619.536 31.7281 609.381 31.7281Z" fill="white"/>
<path d="M0 103.535C2.76611 100.132 4.32841 94.6856 4.33376 88.3508L4.33376 15.7203C4.33376 9.37481 2.77147 3.92819 0.00535554 0.525391C12.8301 0.525391 28.1533 0.52539 40.4377 0.541441C52.8932 0.541441 63.0855 5.55469 69.9179 15.0354C76.4025 24.0347 79.8267 36.8326 79.8267 52.0382C79.8267 67.2438 76.3971 80.0418 69.9125 89.041C63.0802 98.5217 52.8878 103.53 40.4377 103.53H0L0 103.535ZM20.3579 102.203H32.3212C42.5617 102.203 50.4481 97.9653 55.761 89.6081C61.1059 81.1974 63.8185 68.5546 63.8185 52.0329C63.8185 35.5057 61.1113 22.8629 55.7663 14.4576C50.4534 6.10042 42.5671 1.85762 32.3212 1.85762L20.3579 1.85762L20.3526 102.208L20.3579 102.203Z" fill="white"/>
<path d="M121.585 103.545C114.908 103.545 108.322 101.758 102.527 98.3824C93.678 93.3478 87.3486 85.1671 84.7056 75.3386C82.0572 65.4887 83.4268 55.2161 88.5631 46.4095C95.3794 34.612 108.028 27.2821 121.575 27.2821C128.246 27.2821 134.859 29.0691 140.713 32.4505C158.872 42.8783 165.131 66.1949 154.672 84.4288C147.861 96.2262 135.186 103.551 121.591 103.551L121.585 103.545ZM110.328 31.6961C107.696 31.6961 105.294 32.3114 103.186 33.5313C92.8327 39.5183 92.6508 58.7152 102.79 76.3231C110.639 89.961 122.746 99.1315 132.907 99.1315C135.539 99.1315 137.941 98.5162 140.049 97.2963C150.397 91.2986 150.573 72.107 140.445 54.5045C132.586 40.8612 120.483 31.6961 110.328 31.6961Z" fill="white"/>
<path d="M315.827 103.545C312.473 103.545 309.653 102.443 307.673 100.356C305.303 97.852 304.099 93.9944 304.099 88.8795V22.6801L304.11 22.1558C304.11 15.7889 302.5 10.1978 299.76 6.88063C306.346 6.46331 313.136 4.51579 319.086 1.32166V85.2574C319.08 88.9598 319.84 91.8703 321.338 93.9088C322.542 95.546 324.222 96.5786 326.223 96.9157C324.784 100.078 321.836 103.545 315.817 103.545H315.827Z" fill="white"/>
<path d="M536.023 103.555C538.533 100.387 540.025 95.3475 540.186 89.4407L540.197 88.911V88.376L540.207 48.773C540.207 42.2456 538.699 36.7722 536.029 33.5032C542.545 33.0752 549.485 31.0795 555.365 27.9442V45.1669L557.36 41.732C562.775 32.4117 569.661 27.3824 575.787 27.3824C578.612 27.3824 581.18 28.3402 583.005 30.079C584.685 31.6787 585.648 33.8617 585.648 36.066C585.648 41.7052 580.971 46.0818 576.948 46.0818C574.695 46.0818 573.192 44.4927 571.223 42.4329C569.131 40.2499 566.782 38.1847 564.289 38.1847C561.609 38.1847 558.505 43.7598 555.67 48.0133L555.37 48.4573V88.3707C555.37 94.7536 556.874 100.195 559.538 103.555H536.023Z" fill="white"/>
<path d="M467.892 0L395.519 0L392.608 18.5602C400.623 4.30165 409.446 2.38089 425.004 2.38624L448.182 2.38624L388.911 104.053H461.285L464.169 86.0384C456.186 99.7512 447.326 101.688 431.772 101.683H408.6L467.892 0Z" fill="white"/>
<path d="M364.412 103.571C354.177 103.571 344.579 99.5903 337.377 92.362C330.192 85.1552 326.232 75.5728 326.232 65.3858C326.232 44.3323 343.359 27.2059 364.412 27.2059C370.897 27.2059 377.879 29.4424 383.096 33.1662C387.183 36.0875 392.089 41.2291 392.218 49.1476V49.4739C392.218 55.0918 389.628 58.3341 383.839 60.0034C383.138 60.2067 382.368 60.3939 381.555 60.5598C379.602 60.9557 377.499 61.2232 375.471 61.4854L375.327 61.5014C373.941 61.678 372.507 61.8546 371.154 62.0793C368.088 62.6357 365.028 63.2296 362.069 63.8128L361.625 63.8984C359.212 64.3692 356.938 64.8133 354.883 65.1878C354.091 65.3537 353.391 65.5302 352.727 65.7389C349.613 66.5735 346.778 67.8576 344.552 69.4467C343.503 70.201 342.626 70.9822 341.936 71.774L341.706 72.0362L341.85 72.3519C342.101 72.8976 342.374 73.4433 342.653 73.9837C342.941 74.5402 343.23 75.0912 343.535 75.6316C345.263 78.7508 347.248 81.6347 349.442 84.1975L349.56 84.3312L349.694 84.3633C350.207 85.0107 350.753 85.6581 351.325 86.2841C351.582 86.5677 351.844 86.8459 352.112 87.1187C353.011 88.039 353.952 88.9111 354.91 89.7083C360.908 94.6734 367.681 97.295 374.508 97.295C379.158 97.295 383.786 96.0859 388.264 93.6943C388.312 93.6675 388.366 93.6568 388.435 93.6568C388.558 93.6568 388.687 93.7157 388.772 93.8173C388.836 93.8976 388.869 94.0099 388.858 94.133C388.847 94.2347 388.788 94.3363 388.697 94.4166C381.844 100.056 372.534 103.566 364.412 103.566V103.571ZM348.426 34.2041C347.393 34.5198 346.398 34.9318 345.472 35.424C342.572 37.0505 340.347 39.517 338.832 42.7486C337.318 45.9855 336.628 49.795 336.783 54.0645C336.783 54.1501 336.783 54.2625 336.794 54.3748C336.837 55.3272 336.922 56.317 337.051 57.2961C337.495 60.517 338.153 62.8979 339.041 65.7121C339.426 66.9588 339.87 68.2 340.384 69.4948L340.748 70.4151C340.748 70.4151 344.156 66.1295 351.588 63.1921C351.662 63.16 353.77 62.3896 353.77 62.3896C355.729 61.7315 363.947 60.0301 363.947 60.0301C370.56 58.7353 374.685 55.7071 375.562 51.5124C375.798 50.3995 375.792 49.2278 375.552 48.0401C374.819 44.3162 371.785 40.4587 367.232 37.4571C363.257 34.905 358.602 33.4765 354.124 33.4337H353.91C352.005 33.4337 350.186 33.6852 348.5 34.1827L348.452 34.1934L348.42 34.2095L348.426 34.2041Z" fill="white"/>
<path d="M503.394 103.571C493.159 103.571 483.561 99.5903 476.359 92.362C469.174 85.1552 465.214 75.5728 465.214 65.3858C465.214 44.3323 482.341 27.2059 503.394 27.2059C509.879 27.2059 516.861 29.4424 522.078 33.1662C526.165 36.0875 531.071 41.2291 531.2 49.1476V49.4739C531.2 55.0918 528.61 58.3341 522.821 60.0034C522.12 60.2067 521.35 60.3939 520.537 60.5598C518.584 60.9557 516.481 61.2232 514.453 61.4854L514.309 61.5014C512.923 61.678 511.489 61.8546 510.136 62.0793C507.07 62.6357 504.009 63.2296 501.051 63.8128L500.607 63.8984C498.194 64.3692 495.92 64.8133 493.865 65.1878C493.073 65.3537 492.373 65.5302 491.709 65.7389C488.595 66.5735 485.76 67.8576 483.534 69.4467C482.485 70.201 481.608 70.9822 480.918 71.774L480.687 72.0362L480.832 72.3519C481.083 72.8976 481.356 73.4433 481.634 73.9837C481.923 74.5402 482.212 75.0912 482.517 75.6316C484.245 78.7508 486.23 81.6347 488.424 84.1975L488.542 84.3312L488.675 84.3633C489.189 85.0107 489.735 85.6581 490.307 86.2841C490.564 86.5677 490.826 86.8459 491.094 87.1187C491.993 88.039 492.934 88.9111 493.892 89.7083C499.89 94.6734 506.663 97.295 513.49 97.295C518.14 97.295 522.768 96.0859 527.246 93.6943C527.294 93.6675 527.348 93.6568 527.417 93.6568C527.54 93.6568 527.669 93.7157 527.754 93.8173C527.818 93.8976 527.85 94.0099 527.84 94.133C527.829 94.2347 527.77 94.3363 527.679 94.4166C520.826 100.056 511.516 103.566 503.394 103.566V103.571ZM487.407 32.9147C486.375 33.2411 485.38 33.6691 484.454 34.1774C481.554 35.8627 479.328 38.4148 477.814 41.7641C476.3 45.1188 475.61 49.062 475.765 53.4813C475.765 53.5669 475.765 53.69 475.776 53.8023C475.819 54.7868 475.904 55.8141 476.033 56.8253C476.477 60.1639 477.135 62.625 478.023 65.5409C478.408 66.8357 478.852 68.1144 479.366 69.4627L479.73 70.4151C479.73 70.4151 483.138 65.9797 490.57 62.9353C490.644 62.9032 492.752 62.106 492.752 62.106C494.711 61.4212 502.929 59.6609 502.929 59.6609C509.542 58.318 513.667 55.1827 514.544 50.8383C514.78 49.6879 514.774 48.4734 514.534 47.2375C513.801 43.3799 510.767 39.3832 506.214 36.2801C502.239 33.637 497.584 32.1603 493.106 32.1122H492.892C490.987 32.1122 489.168 32.3743 487.482 32.888L487.434 32.8987L487.402 32.9147H487.407Z" fill="white"/>
</svg>
