<svg width="334" height="334" viewBox="0 0 334 334" fill="none" xmlns="http://www.w3.org/2000/svg">
<path d="M166.9 2.5C257.696 2.50022 331.3 76.1049 331.3 166.9C331.3 257.696 257.696 331.3 166.9 331.3C76.1049 331.3 2.50021 257.696 2.5 166.9C2.5 76.1048 76.1048 2.5 166.9 2.5Z" fill="url(#paint0_linear_6360_2547)" stroke="black" stroke-width="5"/>
<path d="M167.014 306.925C244.41 306.925 307.152 244.183 307.152 166.786C307.152 89.3897 244.41 26.6475 167.014 26.6475C89.6172 26.6475 26.875 89.3897 26.875 166.786C26.875 244.183 89.6172 306.925 167.014 306.925Z" fill="url(#paint1_radial_6360_2547)"/>
<path d="M206.078 115.56V95.6694L106.875 95.6694L106.875 234.888H136.649V224.951H156.476V214.997H176.32V205.06H206.078V195.123H216.008V185.17H206.078V195.107V205.044H176.32V195.107V155.325L225.922 155.325V185.153V125.497H206.078V115.543V115.56ZM206.094 185.186H216.008V195.123H206.094V185.186ZM166.407 214.997H156.476V224.951H116.805L116.805 165.279H126.719V175.233H136.649V185.17H146.563V195.123H156.476V205.06H166.407L166.407 214.997ZM176.32 145.388H166.407V155.342H136.649V145.388H166.407H126.719V115.56H136.649V105.623L166.407 105.623V115.56H176.32V145.388Z" fill="#D7D7D7"/>
<path d="M156.48 115.56H136.652V135.451H156.48V115.56Z" fill="#29F91E"/>
<path d="M166.386 115.561H166.403V105.624H136.645V115.561H156.472V135.451H136.645H136.628V115.561H136.645H126.715V145.388H166.403H166.386V115.561Z" fill="#087903"/>
<path d="M206.076 165.278H186.232V185.168H206.076V165.278Z" fill="#7C0404"/>
<path d="M176.321 195.123H180.043H206.079V185.169H186.235V165.278H206.079V185.169H216.009V155.341H176.321V195.123Z" fill="#E80000"/>
<path d="M146.551 205.06V195.123H136.654H136.638V185.169H126.707V175.232H116.811V214.997H156.482V205.06H146.551Z" fill="#0919D8"/>
<path d="M126.722 175.232V165.278H116.809V175.232H126.705H126.722Z" fill="#16B5F4"/>
<path d="M156.48 195.122H146.566V205.059H156.48V195.122Z" fill="#16B5F4"/>
<path d="M156.48 205.059V214.996H166.411V205.059H156.48Z" fill="#16B5F4"/>
<path d="M146.545 195.122H146.562V185.168H136.648V195.122H146.545Z" fill="#16B5F4"/>
<path d="M136.655 175.231H126.725V185.168H136.655V175.231Z" fill="#16B5F4"/>
<path d="M235.835 95.6698H225.922V105.624H235.835V95.6698Z" fill="#9E9E9E"/>
<path d="M245.763 105.624H235.833V115.561H245.763V105.624Z" fill="#9E9E9E"/>
<path d="M206.076 115.56H216.006V95.6695H225.92V85.7324H216.006V75.7787H206.076V95.6695V115.56Z" fill="#9E9E9E"/>
<path d="M156.478 214.997H116.807V224.951H156.478V214.997Z" fill="black"/>
<path d="M245.768 115.56H206.08V125.497H225.924V125.514H235.838V155.342H245.768V115.56Z" fill="black"/>
<path d="M235.836 244.841H176.321V254.795H245.767V254.176V244.841V195.123H235.836V244.841Z" fill="black"/>
<path d="M96.9615 85.7321L206.078 85.7321V75.7784L87.0312 75.7784V75.7951L87.0312 254.779V254.795H116.789V244.842H96.9615L96.9615 85.7321Z" fill="black"/>
<path d="M216.009 155.341V185.186V185.169L225.922 185.186V155.341H216.009Z" fill="black"/>
<path d="M176.321 195.123V205.06H206.079V195.123H180.043H176.321Z" fill="black"/>
<path d="M216.006 185.186H206.093V195.123H216.006V185.186Z" fill="black"/>
<path d="M136.633 155.341H166.407V145.388H136.633V155.341Z" fill="black"/>
<path d="M176.32 115.56H166.406V145.388H176.32V115.56Z" fill="black"/>
<path d="M215.947 205.497V225.226H186.415V235.083H225.78V205.497H215.947Z" fill="black"/>
<defs>
<linearGradient id="paint0_linear_6360_2547" x1="166.9" y1="323.848" x2="166.9" y2="8.99499" gradientUnits="userSpaceOnUse">
<stop offset="0.432692" stop-color="#F7C354"/>
<stop offset="0.5116" stop-color="#F6F0DA"/>
<stop offset="0.634615" stop-color="#F7C354"/>
</linearGradient>
<radialGradient id="paint1_radial_6360_2547" cx="0" cy="0" r="1" gradientUnits="userSpaceOnUse" gradientTransform="translate(167.014 166.786) rotate(90) scale(252.539)">
<stop offset="0.531853" stop-color="white"/>
<stop offset="0.549111" stop-color="#2B2B2B"/>
</radialGradient>
</defs>
</svg>
