<svg width="260" height="294" viewBox="0 0 260 294" fill="none" xmlns="http://www.w3.org/2000/svg">
<path d="M195.146 65.6733L195.146 33.1697L33.0383 33.1697L33.0383 260.668L81.6925 260.668L81.6925 244.43L114.092 244.43L114.092 228.164L146.519 228.164L146.519 211.926L195.146 211.926L195.146 195.688L211.373 195.688L211.373 179.422L195.146 179.422L195.146 195.66L195.146 211.899L146.519 211.899L146.519 195.66L146.519 130.653L227.573 130.653L227.573 179.395L227.573 81.9114L195.146 81.9114L195.146 65.6459L195.146 65.6733ZM195.173 179.45L211.373 179.45L211.373 195.688L195.173 195.688L195.173 179.45ZM130.319 228.164L114.092 228.164L114.092 244.43L49.2655 244.43L49.2655 146.919L65.4653 146.919L65.4653 163.184L81.6925 163.184L81.6925 179.422L97.8923 179.422L97.8923 195.688L114.092 195.688L114.092 211.926L130.319 211.926L130.319 228.164ZM146.519 114.415L130.319 114.415L130.319 130.681L81.6925 130.681L81.6925 114.415L130.319 114.415L65.4653 114.415L65.4653 65.6733L81.6925 65.6733L81.6925 49.4352L130.319 49.4352L130.319 65.6733L146.519 65.6733L146.519 114.415Z" fill="#F2F2F2"/>
<path d="M114.092 65.6733L81.6926 65.6733L81.6926 98.177L114.092 98.177L114.092 65.6733Z" fill="#29F91E"/>
<path d="M130.292 65.6735L130.319 65.6735L130.319 49.4353L81.6925 49.4353L81.6925 65.6735L114.092 65.6735L114.092 98.1771L81.6925 98.1771L81.6652 98.1771L81.6652 65.6735L81.6925 65.6735L65.4653 65.6735L65.4653 114.415L130.319 114.415L130.292 114.415L130.292 65.6735Z" fill="#087903"/>
<path d="M195.146 146.919L162.719 146.919L162.719 179.422L195.146 179.422L195.146 146.919Z" fill="#7C0404"/>
<path d="M146.519 195.688L152.601 195.688L195.146 195.688L195.146 179.422L162.719 179.422L162.719 146.919L195.146 146.919L195.146 179.422L211.373 179.422L211.373 130.681L146.519 130.681L146.519 195.688Z" fill="#E80000"/>
<path d="M97.865 211.926L97.865 195.688L81.6924 195.688L81.6651 195.688L81.6651 179.422L65.438 179.422L65.438 163.184L49.2654 163.184L49.2654 228.164L114.092 228.164L114.092 211.926L97.865 211.926Z" fill="#0919D8"/>
<path d="M65.4652 163.184L65.4652 146.919L49.2654 146.919L49.2654 163.184L65.438 163.184L65.4652 163.184Z" fill="#16B5F4"/>
<path d="M114.092 195.688L97.8921 195.688L97.8921 211.926L114.092 211.926L114.092 195.688Z" fill="#16B5F4"/>
<path d="M114.092 211.926L114.092 228.164L130.319 228.164L130.319 211.926L114.092 211.926Z" fill="#16B5F4"/>
<path d="M97.865 195.688L97.8922 195.688L97.8922 179.423L81.6924 179.423L81.6924 195.688L97.865 195.688Z" fill="#16B5F4"/>
<path d="M81.692 163.184L65.4648 163.184L65.4648 179.422L81.692 179.422L81.692 163.184Z" fill="#16B5F4"/>
<path d="M243.773 33.1697L227.573 33.1697L227.573 49.4352L243.773 49.4352L243.773 33.1697Z" fill="#BABABA"/>
<path d="M260 49.4351L243.772 49.4351L243.772 65.6732L260 65.6732L260 49.4351Z" fill="#BABABA"/>
<path d="M195.146 65.6733L211.373 65.6733L211.373 33.1697L227.573 33.1697L227.573 16.9315L211.373 16.9315L211.373 0.666016L195.146 0.666016L195.146 33.1697L195.146 65.6733Z" fill="#BABABA"/>
<path d="M114.092 228.164L49.2654 228.164L49.2654 244.43L114.092 244.43L114.092 228.164Z" fill="#747474"/>
<path d="M260 65.6733L195.146 65.6733L195.146 81.9115L227.573 81.9115L227.573 81.9388L243.773 81.9388L243.773 130.681L260 130.681L260 65.6733Z" fill="#747474"/>
<path d="M243.773 276.933L146.519 276.933L146.519 293.199L260 293.199L260 292.187L260 276.933L260 195.688L243.773 195.688L243.773 276.933Z" fill="#747474"/>
<path d="M16.8385 16.9315L195.146 16.9315L195.146 0.666016L0.611328 0.666016L0.611328 0.693379L0.611329 293.171L0.611329 293.199L49.2382 293.199L49.2382 276.933L16.8385 276.933L16.8385 16.9315Z" fill="#747474"/>
<path d="M211.373 130.681L211.373 179.422L227.573 179.422L227.573 130.681L211.373 130.681Z" fill="#747474"/>
<path d="M146.519 195.688L146.519 211.926L195.146 211.926L195.146 195.688L152.601 195.688L146.519 195.688Z" fill="#747474"/>
<path d="M211.373 179.45L195.173 179.45L195.173 195.688L211.373 195.688L211.373 179.45Z" fill="#747474"/>
<path d="M81.6653 130.681L130.319 130.681L130.319 114.415L81.6653 114.415L81.6653 130.681Z" fill="#747474"/>
<path d="M146.519 65.6733L130.32 65.6733L130.32 114.415L146.519 114.415L146.519 65.6733Z" fill="#747474"/>
<path d="M211.373 211.926L211.373 244.43L162.719 244.43L162.719 260.668L227.573 260.668L227.573 211.926L211.373 211.926Z" fill="#747474"/>
</svg>
