<svg width="350" height="56" viewBox="0 0 900 145" fill="none" xmlns="http://www.w3.org/2000/svg">
<path d="M422.364 127.824C419.863 127.824 416.289 127.221 413.499 124.36C410.83 121.615 409.473 117.431 409.473 111.929V109.568C409.473 109.568 401.594 127.824 384.143 127.824C373.352 127.824 365.816 119.903 365.816 108.558V68.4753C365.816 61.5811 364.075 55.5226 361.111 51.9304C368.166 51.4662 375.673 49.3074 382.043 45.9125V105.389C382.043 109.202 383.255 112.434 385.564 114.738C387.653 116.827 390.478 117.982 393.507 117.982C398.072 117.982 402.255 115.533 404.976 111.268C407.831 106.817 409.467 100.236 409.467 93.2142V68.4869C409.467 61.4012 407.831 55.4646 404.942 51.9246C412.002 51.4604 419.515 49.3016 425.885 45.9067V108.012C425.885 117.634 430.312 120.106 433.445 120.646C431.895 124.075 428.739 127.83 422.364 127.83V127.824Z" fill="white"/>
<path d="M474.641 127.818C471.195 127.818 465.939 126.327 461.861 124.197C459.586 123.03 456.367 122.003 452.729 122.003C446.846 122.003 442.605 124.789 438.678 126.959V39.4995C438.683 32.3964 437.001 26.4598 434.036 22.9373C441.155 22.4788 448.494 20.3607 454.928 16.9136V61.1918C454.928 61.1918 463.52 44.9893 480.28 44.9893C486.627 44.9893 491.953 47.0378 496.56 51.2509C503.597 57.8201 507.797 69.9836 507.797 83.7777C507.983 96.005 504.363 108.07 498.109 116.067C492.208 123.75 484.098 127.812 474.653 127.812L474.641 127.818ZM471.613 52.9687C471.445 52.9687 471.276 52.9687 471.102 52.9745C462.934 53.1834 454.916 63.2983 454.916 73.0593V103.532C454.916 114.302 463.265 125.781 476.353 125.781C477.078 125.781 477.821 125.723 478.546 125.607C484.388 124.708 488.582 120.378 491.019 112.736C493.079 105.957 493.665 95.918 492.626 85.1937C491.675 77.8179 489.586 67.6391 485.026 60.919C481.621 55.7136 476.979 52.9571 471.613 52.9571V52.9687Z" fill="white"/>
<path d="M858.629 127.854C851.389 127.854 844.247 125.915 837.964 122.254C828.368 116.799 821.505 107.926 818.639 97.2652C815.762 86.5815 817.253 75.4336 822.822 65.8816C830.213 53.0856 843.928 45.1353 858.618 45.1353C865.852 45.1353 873.029 47.0735 879.37 50.7411C899.06 62.0515 905.848 87.3417 894.506 107.119C887.121 119.915 873.377 127.859 858.635 127.859L858.629 127.854ZM846.423 49.9229C843.569 49.9229 840.964 50.5902 838.678 51.9134C827.446 58.4071 827.255 79.2289 838.249 98.3271C846.765 113.119 859.888 123.066 870.905 123.066C873.76 123.066 876.365 122.399 878.65 121.076C889.871 114.57 890.062 93.7542 879.08 74.6618C870.557 59.8637 857.434 49.9229 846.423 49.9229Z" fill="white"/>
<path d="M185.648 127.808C188.648 124.117 190.342 118.209 190.347 111.338V32.5601C190.347 25.6776 188.653 19.7699 185.654 16.0791C199.56 16.0791 216.176 16.0791 229.496 16.0965C243.002 16.0965 254.054 21.5341 261.463 31.8173C268.494 41.5782 272.207 55.4594 272.207 71.9521C272.207 88.4447 268.488 102.326 261.457 112.087C254.048 122.37 242.996 127.802 229.496 127.802H185.648V127.808ZM207.723 126.363H220.695C231.799 126.363 240.351 121.767 246.112 112.702C251.908 103.579 254.849 89.8664 254.849 71.9463C254.849 54.0202 251.913 40.3074 246.118 31.1906C240.357 22.126 231.805 17.5241 220.695 17.5241L207.723 17.5241L207.717 126.368L207.723 126.363Z" fill="white"/>
<path d="M317.487 127.819C310.247 127.819 303.105 125.881 296.822 122.219C287.227 116.758 280.363 107.885 277.497 97.2244C274.626 86.5408 276.111 75.3987 281.68 65.8467C289.071 53.0507 302.786 45.1003 317.476 45.1003C324.71 45.1003 331.881 47.0386 338.228 50.7062C357.918 62.0166 364.706 87.3068 353.364 107.084C345.979 119.88 332.235 127.825 317.493 127.825L317.487 127.819ZM305.281 49.888C302.427 49.888 299.822 50.5553 297.536 51.8784C286.31 58.3722 286.113 79.194 297.107 98.2922C305.618 113.085 318.746 123.031 329.764 123.031C332.618 123.031 335.223 122.364 337.509 121.041C348.729 114.535 348.92 93.7193 337.938 74.6269C329.415 59.8288 316.292 49.888 305.281 49.888Z" fill="white"/>
<path d="M528.112 127.818C524.474 127.818 521.417 126.623 519.27 124.359C516.7 121.643 515.395 117.459 515.395 111.912V40.1089L515.406 39.5402C515.406 32.6344 513.66 26.5701 510.69 22.9721C517.831 22.5195 525.193 20.4071 531.645 16.9426V107.983C531.639 111.999 532.463 115.156 534.087 117.367C535.393 119.142 537.214 120.262 539.384 120.628C537.823 124.058 534.627 127.818 528.1 127.818H528.112Z" fill="white"/>
<path d="M766.878 127.829C769.599 124.394 771.218 118.927 771.392 112.52L771.403 111.946V111.366L771.415 68.4106C771.415 61.3307 769.779 55.394 766.884 51.8483C773.95 51.3841 781.475 49.2195 787.851 45.8188V64.4992L790.015 60.7736C795.886 50.6645 803.352 45.2095 809.995 45.2095C813.058 45.2095 815.843 46.2482 817.822 48.1343C819.643 49.8694 820.687 52.2371 820.687 54.628C820.687 60.7446 815.617 65.4916 811.254 65.4916C808.812 65.4916 807.181 63.768 805.046 61.5338C802.778 59.1661 800.231 56.9261 797.528 56.9261C794.621 56.9261 791.256 62.973 788.181 67.5865L787.857 68.0682V111.36C787.857 118.283 789.487 124.185 792.376 127.829H766.878Z" fill="white"/>
<path d="M693.002 15.5093L614.524 15.5093L611.368 35.6405C620.059 20.175 629.625 18.0917 646.496 18.0975H671.629L607.359 128.369H685.837L688.964 108.83C680.308 123.704 670.7 125.804 653.835 125.799H628.709L693.002 15.5093Z" fill="white"/>
<path d="M580.794 127.846C569.696 127.846 559.288 123.529 551.479 115.689C543.687 107.872 539.394 97.4783 539.394 86.429C539.394 63.5935 557.965 45.0176 580.794 45.0176C587.825 45.0176 595.396 47.4433 601.053 51.4823C605.485 54.6508 610.805 60.2277 610.944 68.8164V69.1704C610.944 75.2637 608.137 78.7804 601.859 80.591C601.099 80.8116 600.264 81.0147 599.382 81.1946C597.264 81.624 594.984 81.9142 592.786 82.1985L592.629 82.2159C591.126 82.4074 589.572 82.5989 588.104 82.8427C584.78 83.4462 581.461 84.0903 578.253 84.7229L577.771 84.8157C575.155 85.3264 572.689 85.8081 570.461 86.2143C569.603 86.3942 568.843 86.5857 568.123 86.812C564.747 87.7173 561.672 89.1101 559.259 90.8336C558.121 91.6519 557.17 92.4991 556.422 93.358L556.172 93.6424L556.329 93.9848C556.601 94.5767 556.897 95.1686 557.199 95.7547C557.512 96.3583 557.826 96.956 558.156 97.5421C560.03 100.925 562.183 104.053 564.561 106.833L564.689 106.978L564.834 107.013C565.391 107.715 565.983 108.417 566.603 109.096C566.882 109.404 567.166 109.706 567.456 110.002C568.431 111 569.452 111.946 570.49 112.81C576.994 118.196 584.339 121.039 591.741 121.039C596.783 121.039 601.801 119.728 606.657 117.134C606.709 117.105 606.767 117.093 606.843 117.093C606.976 117.093 607.116 117.157 607.208 117.267C607.278 117.354 607.313 117.476 607.301 117.609C607.29 117.72 607.226 117.83 607.127 117.917C599.695 124.034 589.601 127.84 580.794 127.84V127.846ZM563.459 52.6081C562.339 52.9505 561.26 53.3974 560.256 53.9313C557.112 55.6954 554.699 58.3707 553.057 61.8758C551.415 65.3867 550.666 69.5186 550.835 74.1495C550.835 74.2424 550.835 74.3642 550.846 74.4861C550.893 75.5191 550.986 76.5926 551.125 77.6546C551.606 81.1481 552.32 83.7305 553.283 86.783C553.701 88.1352 554.182 89.4815 554.739 90.8859L555.134 91.884C555.134 91.884 558.829 87.2357 566.888 84.0497C566.969 84.0149 569.255 83.1792 569.255 83.1792C571.378 82.4655 580.289 80.62 580.289 80.62C587.46 79.2157 591.933 75.9311 592.884 71.3814C593.14 70.1743 593.134 68.9034 592.873 67.6151C592.078 63.5761 588.788 59.392 583.851 56.1365C579.541 53.3683 574.493 51.8189 569.638 51.7725H569.405C567.34 51.7725 565.368 52.0452 563.54 52.5849L563.488 52.5965L563.453 52.6139L563.459 52.6081Z" fill="white"/>
<path d="M731.497 127.846C720.399 127.846 709.991 123.529 702.182 115.689C694.391 107.872 690.098 97.4783 690.098 86.429C690.098 63.5935 708.668 45.0176 731.497 45.0176C738.529 45.0176 746.1 47.4433 751.756 51.4823C756.189 54.6508 761.509 60.2277 761.648 68.8164V69.1704C761.648 75.2637 758.84 78.7804 752.563 80.591C751.803 80.8116 750.967 81.0147 750.086 81.1946C747.968 81.624 745.688 81.9142 743.489 82.1985L743.333 82.2159C741.83 82.4074 740.275 82.5989 738.807 82.8427C735.483 83.4462 732.165 84.0903 728.956 84.7229L728.475 84.8157C725.858 85.3264 723.393 85.8081 721.165 86.2143C720.306 86.3942 719.546 86.5857 718.827 86.812C715.45 87.7173 712.375 89.1101 709.962 90.8336C708.825 91.6519 707.873 92.4991 707.125 93.358L706.876 93.6424L707.032 93.9848C707.305 94.5767 707.601 95.1686 707.902 95.7547C708.216 96.3583 708.529 96.956 708.86 97.5421C710.734 100.925 712.886 104.053 715.265 106.833L715.392 106.978L715.537 107.013C716.094 107.715 716.686 108.417 717.307 109.096C717.585 109.404 717.87 109.706 718.16 110.002C719.134 111 720.155 111.946 721.194 112.81C727.697 118.196 735.042 121.039 742.445 121.039C747.486 121.039 752.505 119.728 757.361 117.134C757.413 117.105 757.471 117.093 757.546 117.093C757.68 117.093 757.819 117.157 757.912 117.267C757.981 117.354 758.016 117.476 758.005 117.609C757.993 117.72 757.929 117.83 757.831 117.917C750.399 124.034 740.304 127.84 731.497 127.84V127.846ZM714.162 51.2096C713.043 51.5636 711.964 52.0278 710.96 52.5791C707.815 54.4071 705.402 57.1752 703.76 60.808C702.118 64.4466 701.37 68.7235 701.538 73.517C701.538 73.6098 701.538 73.7433 701.55 73.8652C701.596 74.9329 701.689 76.0471 701.828 77.1439C702.31 80.7651 703.023 83.4346 703.986 86.5973C704.404 88.0017 704.886 89.3886 705.443 90.851L705.837 91.884C705.837 91.884 709.533 87.0732 717.591 83.7712C717.672 83.7363 719.958 82.8717 719.958 82.8717C722.081 82.1289 730.993 80.2196 730.993 80.2196C738.163 78.763 742.636 75.3624 743.588 70.6502C743.843 69.4025 743.837 68.0852 743.576 66.7447C742.781 62.5606 739.492 58.2256 734.555 54.8598C730.244 51.993 725.197 50.3913 720.341 50.3391H720.109C718.044 50.3391 716.071 50.6234 714.244 51.1805L714.191 51.1922L714.157 51.2096H714.162Z" fill="white"/>
<path d="M95.9959 32.0041V16.0024H16.001V128.001H40.0102V120.007H55.9985V111.999H72.0001V104.005H95.9959V96.0108H104.004V88.0033H95.9959V95.9974V103.992H72.0001V95.9974V63.994H111.998V87.9898V39.9982H95.9959V31.9907V32.0041ZM96.0094 88.0167H104.004V96.0108H96.0094V88.0167ZM64.006 111.999H55.9985V120.007H24.0085V72.0016H32.0027V80.0092H40.0102V88.0033H48.0043V96.0108H55.9985V104.005H64.006V111.999ZM72.0001 55.9999H64.006V64.0075H40.0102V55.9999H64.006H32.0027V32.0041H40.0102V24.01H64.006V32.0041H72.0001V55.9999Z" fill="#D7D7D7"/>
<path d="M55.999 32.0042H40.0107V48.0058H55.999V32.0042Z" fill="#29F91E"/>
<path d="M63.9898 32.0044H64.0032V24.0103H40.0074V32.0044H55.9957V48.0061H40.0074H39.994V32.0044H40.0074H31.9999V56.0002H64.0032H63.9898V32.0044Z" fill="#087903"/>
<path d="M95.9945 72.001H79.9928V88.0027H95.9945V72.001Z" fill="#7C0404"/>
<path d="M72.001 96.0102H75.0021H95.9968V88.0026H79.9951V72.001H95.9968V88.0026H104.004V64.0068H72.001V96.0102Z" fill="#E80000"/>
<path d="M47.9938 104.005V96.0105H40.0132H39.9997V88.0029H31.9921V80.0088H24.0115V111.999H56.0014V104.005H47.9938Z" fill="#0919D8"/>
<path d="M32.0039 80.0079V72.0012H24.0106V80.0079H31.9904H32.0039Z" fill="#16B5F4"/>
<path d="M55.9989 96.0098H48.0056V104.003H55.9989V96.0098Z" fill="#16B5F4"/>
<path d="M56.0012 104.004V111.997H64.008V104.004H56.0012Z" fill="#16B5F4"/>
<path d="M47.9899 96.0089H48.0034V88.0022H40.0101V96.0089H47.9899Z" fill="#16B5F4"/>
<path d="M40.0133 80.0081H32.0066V88.0013H40.0133V80.0081Z" fill="#16B5F4"/>
<path d="M119.99 16.0024H111.997V24.0092H119.99V16.0024Z" fill="#9E9E9E"/>
<path d="M127.996 24.0103H119.989V32.0035H127.996V24.0103Z" fill="#9E9E9E"/>
<path d="M95.9945 32.0039H104.002V16.0022H111.996V8.00806H104.002V0.000488281H95.9945V16.0022V32.0039Z" fill="#9E9E9E"/>
<path d="M55.9989 111.999H24.009V120.007H55.9989V111.999Z" fill="black"/>
<path d="M128.001 32.0042H95.9973V39.9983H111.999V40.0117H119.993V64.0075H128.001V32.0042Z" fill="black"/>
<path d="M119.993 136.008H72.0017V144.016H128.001V143.518V136.008V96.0107H119.993V136.008Z" fill="black"/>
<path d="M8.00684 8.00806H95.9959V0.000488281H-0.000732422V0.013939V144.002V144.016H23.9951V136.008H8.00684V8.00806Z" fill="black"/>
<path d="M104.003 64.0068V88.0161V88.0026L111.998 88.0161V64.0068H104.003Z" fill="black"/>
<path d="M72.0017 96.0107V104.005H95.9975V96.0107H75.0029H72.0017Z" fill="black"/>
<path d="M104.001 88.0166H96.0079V96.0099H104.001V88.0166Z" fill="black"/>
<path d="M39.9963 64.0073H64.0056V55.9998H39.9963V64.0073Z" fill="black"/>
<path d="M72.0002 32.0042H64.0061V56H72.0002V32.0042Z" fill="black"/>
<path d="M103.955 104.357V120.228H80.1406V128.157H111.884V104.357H103.955Z" fill="black"/>
</svg>
