<svg xmlns="http://www.w3.org/2000/svg" data-v-7aca6cbb="" fill="none" viewBox="0 0 35.72 32">
  <path fill-rule="evenodd" clip-rule="evenodd" d="M28.1799 1.76855L35.1302 13.7946C35.5162 14.466 35.7182 15.2274 35.7157 16.0019C35.7132 16.7764 35.5064 17.5365 35.1161 18.2054L28.1657 30.2315C27.8559 30.7681 27.4105 31.214 26.8741 31.5243C26.3378 31.8347 25.7293 31.9987 25.1097 32H11.2266C10.456 31.9986 9.69935 31.7949 9.03211 31.4095C8.36487 31.024 7.81046 30.4703 7.42425 29.8035L0.473879 17.7597C0.163435 17.222 0 16.612 0 15.9912C0 15.3703 0.163435 14.7603 0.473879 14.2226L7.42425 2.19654C7.81016 1.53026 8.36402 0.97681 9.03058 0.591395C9.69714 0.20598 10.4531 0.00207053 11.2231 6.88972e-06H25.1097C25.7317 -0.00122075 26.3431 0.161632 26.8822 0.472138C27.4212 0.782643 27.8688 1.22982 28.1799 1.76855ZM10.6825 20.4838C10.4777 20.4838 10.2846 20.5673 10.1442 20.7105L6.47547 24.4511C6.23558 24.6957 6.40526 25.1133 6.74463 25.1133H25.3163C25.5211 25.1133 25.7142 25.0298 25.8546 24.8866L29.5233 21.146C29.7632 20.9014 29.5936 20.4838 29.2542 20.4838H10.6825ZM10.1442 6.94717C10.2905 6.80399 10.4835 6.72047 10.6825 6.72047H29.2542C29.5936 6.72047 29.7632 7.13808 29.5233 7.38268L25.8546 11.1233C25.7142 11.2664 25.5211 11.35 25.3163 11.35H6.74463C6.40526 11.35 6.23558 10.9324 6.47547 10.6878L10.1442 6.94717ZM25.3163 13.6022C25.5211 13.6022 25.7142 13.6834 25.8546 13.8227L29.5233 17.4622C29.7632 17.7002 29.5936 18.1065 29.2542 18.1065H10.6825C10.4777 18.1065 10.2846 18.0253 10.1442 17.886L6.47547 14.2465C6.23558 14.0085 6.40526 13.6022 6.74463 13.6022H25.3163Z" fill="#8FF0FF"/>
</svg>