<svg width="208" height="82" viewBox="0 0 208 82" fill="none" xmlns="http://www.w3.org/2000/svg">
<path d="M54.028 43.7461C54.028 54.5815 50.3239 63.6713 42.9158 70.9942C35.5077 78.3384 26.4818 82 15.838 82H0V66.2897H15.838C22.1391 66.2897 27.4397 64.1396 31.7398 59.8182C36.0399 55.5181 38.19 50.1537 38.19 43.7674L38.0623 0H54.028V43.7461Z" fill="white"/>
<path d="M65.4165 0.743652H81.2545L80.9991 16.1985H65.2888L65.4165 0.743652ZM65.4165 22.4571H81.2545V81.9773H65.2888L65.4165 22.4571Z" fill="white"/>
<path d="M108.889 16.9677H136.094V32.8057H108.633V54.732C108.633 57.989 109.655 60.7139 111.72 62.9278C113.785 65.1417 116.361 66.27 119.447 66.27H135.945V81.9802H119.596C112.103 81.9802 105.781 79.3193 100.629 73.9761C95.4773 68.6329 92.9015 62.1402 92.9015 54.4553V0.214355H108.612L108.867 16.9464L108.889 16.9677Z" fill="white"/>
<path d="M198.342 72.6533C192.041 78.8906 184.335 81.9986 175.224 81.9986C166.113 81.9986 158.3 78.8693 152.041 72.5894C145.783 66.3096 142.654 58.6248 142.654 49.4924C142.654 40.36 145.804 32.6538 152.105 26.3314C158.406 20.009 166.113 16.8584 175.224 16.8584C184.335 16.8584 192.041 20.009 198.342 26.3314C204.643 32.6538 207.794 40.36 207.794 49.4924C207.794 58.6248 204.643 66.4373 198.342 72.6533ZM186.911 37.3797C183.803 34.2504 179.907 32.6964 175.224 32.6964C170.54 32.6964 166.581 34.3142 163.345 37.5712C160.109 40.8282 158.492 44.7878 158.492 49.4924C158.492 54.1969 160.109 58.1777 163.345 61.4134C166.581 64.6704 170.54 66.2884 175.224 66.2884C179.907 66.2884 183.973 64.6918 187.166 61.4773C190.359 58.2629 191.956 54.2821 191.956 49.4924C191.956 44.9581 190.019 40.509 186.911 37.3797Z" fill="white"/>
</svg>
