<svg width="118" height="132" viewBox="0 0 118 132" fill="none" xmlns="http://www.w3.org/2000/svg">
  <path
    d="M116.931 20.5636C92.7772 20.5636 74.2732 14.1472 58.6238 0C42.9788 14.1472 24.4748 20.5636 0.320663 20.5636C0.320663 57.4056 -7.8769 110.182 58.6238 131.615C125.13 110.182 116.931 57.406 116.931 20.5636Z"
    fill="#FFD140"></path>
  <path
    d="M56.3256 106.536C52.6541 106.536 49.267 105.864 46.1644 104.519C43.1134 103.123 40.6054 101.158 38.6404 98.6243L45.6214 90.2471C48.5689 94.2289 51.9302 96.2198 55.7051 96.2198C60.8245 96.2198 63.3842 93.2205 63.3842 87.222V61.3923H44.3028V51.3086H75.8724V86.5239C75.8724 93.1947 74.2177 98.2106 70.9082 101.572C67.5987 104.881 62.7378 106.536 56.3256 106.536Z"
    fill="#2E2E2F"></path>
  <path
    d="M23.3401 41.0959C22.8361 41.0959 22.3681 40.9919 21.9361 40.7839C21.5041 40.5679 21.1561 40.2679 20.8921 39.8839L21.5881 39.0679C22.0521 39.7319 22.6361 40.0639 23.3401 40.0639C23.8121 40.0639 24.1681 39.9199 24.4081 39.6319C24.6561 39.3439 24.7801 38.9199 24.7801 38.3599V33.6439H21.7441V32.5999H25.9681V38.2999C25.9681 39.2279 25.7441 39.9279 25.2961 40.3999C24.8561 40.8639 24.2041 41.0959 23.3401 41.0959Z"
    fill="black"></path>
  <path
    d="M31.6884 32.5999C32.7764 32.5999 33.6324 32.8599 34.2564 33.3799C34.8804 33.8999 35.1924 34.6159 35.1924 35.5279C35.1924 36.4399 34.8804 37.1559 34.2564 37.6759C33.6324 38.1959 32.7764 38.4559 31.6884 38.4559H29.6124V40.9999H28.4124V32.5999H31.6884ZM31.6524 37.4119C32.4124 37.4119 32.9924 37.2519 33.3924 36.9319C33.7924 36.6039 33.9924 36.1359 33.9924 35.5279C33.9924 34.9199 33.7924 34.4559 33.3924 34.1359C32.9924 33.8079 32.4124 33.6439 31.6524 33.6439H29.6124V37.4119H31.6524Z"
    fill="black"></path>
  <path
    d="M40.8646 41.0959C40.0166 41.0959 39.2526 40.9119 38.5726 40.5439C37.8926 40.1679 37.3566 39.6519 36.9646 38.9959C36.5806 38.3399 36.3886 37.6079 36.3886 36.7999C36.3886 35.9919 36.5806 35.2599 36.9646 34.6039C37.3566 33.9479 37.8926 33.4359 38.5726 33.0679C39.2526 32.6919 40.0166 32.5039 40.8646 32.5039C41.7046 32.5039 42.4646 32.6919 43.1446 33.0679C43.8246 33.4359 44.3566 33.9479 44.7406 34.6039C45.1246 35.2519 45.3166 35.9839 45.3166 36.7999C45.3166 37.6159 45.1246 38.3519 44.7406 39.0079C44.3566 39.6559 43.8246 40.1679 43.1446 40.5439C42.4646 40.9119 41.7046 41.0959 40.8646 41.0959ZM40.8646 40.0279C41.4806 40.0279 42.0326 39.8879 42.5206 39.6079C43.0166 39.3279 43.4046 38.9439 43.6846 38.4559C43.9726 37.9599 44.1166 37.4079 44.1166 36.7999C44.1166 36.1919 43.9726 35.6439 43.6846 35.1559C43.4046 34.6599 43.0166 34.2719 42.5206 33.9919C42.0326 33.7119 41.4806 33.5719 40.8646 33.5719C40.2486 33.5719 39.6886 33.7119 39.1846 33.9919C38.6886 34.2719 38.2966 34.6599 38.0086 35.1559C37.7286 35.6439 37.5886 36.1919 37.5886 36.7999C37.5886 37.4079 37.7286 37.9599 38.0086 38.4559C38.2966 38.9439 38.6886 39.3279 39.1846 39.6079C39.6886 39.8879 40.2486 40.0279 40.8646 40.0279Z"
    fill="black"></path>
  <path
    d="M50.9427 41.0959C50.0947 41.0959 49.3307 40.9119 48.6507 40.5439C47.9707 40.1679 47.4347 39.6519 47.0427 38.9959C46.6587 38.3399 46.4667 37.6079 46.4667 36.7999C46.4667 35.9919 46.6587 35.2599 47.0427 34.6039C47.4347 33.9479 47.9707 33.4359 48.6507 33.0679C49.3307 32.6919 50.0947 32.5039 50.9427 32.5039C51.7827 32.5039 52.5427 32.6919 53.2227 33.0679C53.9027 33.4359 54.4347 33.9479 54.8187 34.6039C55.2027 35.2519 55.3947 35.9839 55.3947 36.7999C55.3947 37.6159 55.2027 38.3519 54.8187 39.0079C54.4347 39.6559 53.9027 40.1679 53.2227 40.5439C52.5427 40.9119 51.7827 41.0959 50.9427 41.0959ZM50.9427 40.0279C51.5587 40.0279 52.1107 39.8879 52.5987 39.6079C53.0947 39.3279 53.4827 38.9439 53.7627 38.4559C54.0507 37.9599 54.1947 37.4079 54.1947 36.7999C54.1947 36.1919 54.0507 35.6439 53.7627 35.1559C53.4827 34.6599 53.0947 34.2719 52.5987 33.9919C52.1107 33.7119 51.5587 33.5719 50.9427 33.5719C50.3267 33.5719 49.7667 33.7119 49.2627 33.9919C48.7667 34.2719 48.3747 34.6599 48.0867 35.1559C47.8067 35.6439 47.6667 36.1919 47.6667 36.7999C47.6667 37.4079 47.8067 37.9599 48.0867 38.4559C48.3747 38.9439 48.7667 39.3279 49.2627 39.6079C49.7667 39.8879 50.3267 40.0279 50.9427 40.0279Z"
    fill="black"></path>
  <path d="M57.2288 32.5999H58.4288V39.9559H62.9768V40.9999H57.2288V32.5999Z" fill="black"></path>
  <path
    d="M64.8251 41.0719C64.6011 41.0719 64.4091 40.9959 64.2491 40.8439C64.0891 40.6839 64.0091 40.4839 64.0091 40.2439C64.0091 40.0119 64.0891 39.8199 64.2491 39.6679C64.4091 39.5079 64.6011 39.4279 64.8251 39.4279C65.0491 39.4279 65.2371 39.5039 65.3891 39.6559C65.5411 39.8079 65.6171 40.0039 65.6171 40.2439C65.6171 40.4839 65.5371 40.6839 65.3771 40.8439C65.2251 40.9959 65.0411 41.0719 64.8251 41.0719Z"
    fill="black"></path>
  <path
    d="M70.9935 41.0959C70.1455 41.0959 69.3815 40.9119 68.7015 40.5439C68.0215 40.1679 67.4855 39.6519 67.0935 38.9959C66.7095 38.3399 66.5175 37.6079 66.5175 36.7999C66.5175 35.9919 66.7095 35.2599 67.0935 34.6039C67.4855 33.9479 68.0215 33.4359 68.7015 33.0679C69.3815 32.6919 70.1455 32.5039 70.9935 32.5039C71.8335 32.5039 72.5935 32.6919 73.2735 33.0679C73.9535 33.4359 74.4855 33.9479 74.8695 34.6039C75.2535 35.2519 75.4455 35.9839 75.4455 36.7999C75.4455 37.6159 75.2535 38.3519 74.8695 39.0079C74.4855 39.6559 73.9535 40.1679 73.2735 40.5439C72.5935 40.9119 71.8335 41.0959 70.9935 41.0959ZM70.9935 40.0279C71.6095 40.0279 72.1615 39.8879 72.6495 39.6079C73.1455 39.3279 73.5335 38.9439 73.8135 38.4559C74.1015 37.9599 74.2455 37.4079 74.2455 36.7999C74.2455 36.1919 74.1015 35.6439 73.8135 35.1559C73.5335 34.6599 73.1455 34.2719 72.6495 33.9919C72.1615 33.7119 71.6095 33.5719 70.9935 33.5719C70.3775 33.5719 69.8175 33.7119 69.3135 33.9919C68.8175 34.2719 68.4255 34.6599 68.1375 35.1559C67.8575 35.6439 67.7175 36.1919 67.7175 36.7999C67.7175 37.4079 67.8575 37.9599 68.1375 38.4559C68.4255 38.9439 68.8175 39.3279 69.3135 39.6079C69.8175 39.8879 70.3775 40.0279 70.9935 40.0279Z"
    fill="black"></path>
  <path
    d="M84.5036 32.5999V40.9999H83.5196L78.4796 34.7359V40.9999H77.2796V32.5999H78.2636L83.3036 38.8639V32.5999H84.5036Z"
    fill="black"></path>
  <path
    d="M93.1139 39.9559V40.9999H87.0179V32.5999H92.9459V33.6439H88.2179V36.2239H92.4299V37.2439H88.2179V39.9559H93.1139Z"
    fill="black"></path>
</svg>
