<svg
   width="117.25177"
   height="131.61501"
   viewBox="0 0 117.25177 131.61501"
   fill="none"
   version="1.1"
   id="svg24"
   xmlns="http://www.w3.org/2000/svg"
   xmlns:svg="http://www.w3.org/2000/svg">
  <defs
     id="defs28" />
  <path
     d="M 116.931,20.5636 C 92.7772,20.5636 74.2732,14.1472 58.6238,0 42.9788,14.1472 24.4748,20.5636 0.32066308,20.5636 0.32066308,57.4056 -7.8768999,110.182 58.6238,131.615 125.13,110.182 116.931,57.406 116.931,20.5636 Z"
     fill="#ffd140"
     id="path2" />
  <path
     d="m 56.884922,96.468203 c -3.6715,0 -7.0586,-0.672 -10.1612,-2.017 -3.051,-1.396 -5.559,-3.361 -7.524,-5.8947 l 6.981,-8.3772 c 2.9475,3.9818 6.3088,5.9727 10.0837,5.9727 5.1194,0 7.6791,-2.9993 7.6791,-8.9978 v -25.8297 h -19.0814 v -10.0837 h 31.5696 v 35.2153 c 0,6.6708 -1.6547,11.6867 -4.9642,15.0481 -3.3095,3.309 -8.1704,4.964 -14.5826,4.964 z"
     fill="#2e2e2f"
     id="path4" />
</svg>
