<svg xmlns="http://www.w3.org/2000/svg" xmlns:xlink="http://www.w3.org/1999/xlink" id="svg" version="1.1" viewBox="50.56 50.56 50.91 72.63">
  <g id="svgg">
    <path id="path0" d="M75.586 50.825 C 75.586 50.969,75.521 51.086,75.440 51.086 C 75.360 51.086,75.146 51.360,74.966 51.694 C 74.786 52.029,74.578 52.302,74.504 52.302 C 74.431 52.302,74.370 52.459,74.370 52.650 C 74.370 52.841,74.291 52.997,74.194 52.997 C 74.096 52.997,73.882 53.291,73.716 53.649 C 73.551 54.007,73.279 54.427,73.111 54.582 C 72.943 54.736,72.806 54.993,72.806 55.152 C 72.806 55.311,72.689 55.486,72.546 55.541 C 72.402 55.596,72.285 55.760,72.285 55.906 C 72.285 56.052,72.140 56.298,71.962 56.452 C 71.785 56.607,71.584 56.909,71.516 57.124 C 71.448 57.339,71.320 57.515,71.231 57.515 C 71.142 57.515,71.069 57.632,71.069 57.776 C 71.069 57.919,70.990 58.036,70.895 58.036 C 70.799 58.036,70.721 58.185,70.721 58.365 C 70.721 58.546,70.604 58.739,70.460 58.794 C 70.317 58.849,70.200 59.036,70.200 59.209 C 70.200 59.382,70.043 59.636,69.852 59.774 C 69.661 59.912,69.505 60.125,69.505 60.247 C 69.505 60.369,69.428 60.469,69.334 60.469 C 69.241 60.469,69.115 60.665,69.055 60.904 C 68.995 61.142,68.876 61.338,68.791 61.338 C 68.706 61.338,68.636 61.494,68.636 61.685 C 68.636 61.877,68.570 62.033,68.490 62.033 C 68.409 62.033,68.196 62.307,68.016 62.641 C 67.836 62.976,67.628 63.249,67.554 63.249 C 67.480 63.249,67.420 63.367,67.420 63.510 C 67.420 63.653,67.343 63.771,67.249 63.771 C 67.155 63.771,67.030 63.966,66.970 64.205 C 66.910 64.444,66.791 64.639,66.706 64.639 C 66.621 64.639,66.551 64.767,66.551 64.923 C 66.551 65.079,66.406 65.333,66.228 65.488 C 66.051 65.642,65.850 65.945,65.782 66.160 C 65.714 66.375,65.586 66.551,65.497 66.551 C 65.407 66.551,65.334 66.651,65.334 66.773 C 65.334 66.895,65.178 67.108,64.987 67.246 C 64.796 67.384,64.639 67.638,64.639 67.811 C 64.639 67.984,64.522 68.171,64.379 68.226 C 64.235 68.281,64.118 68.474,64.118 68.655 C 64.118 68.835,64.040 68.983,63.944 68.983 C 63.849 68.983,63.771 69.101,63.771 69.244 C 63.771 69.387,63.698 69.505,63.609 69.505 C 63.519 69.505,63.391 69.681,63.323 69.896 C 63.255 70.111,63.054 70.413,62.877 70.568 C 62.700 70.722,62.554 70.979,62.554 71.138 C 62.554 71.297,62.437 71.472,62.294 71.527 C 62.150 71.582,62.033 71.775,62.033 71.956 C 62.033 72.137,61.955 72.285,61.859 72.285 C 61.764 72.285,61.685 72.402,61.685 72.546 C 61.685 72.689,61.615 72.806,61.529 72.806 C 61.443 72.806,61.290 73.042,61.189 73.330 C 61.089 73.618,60.886 73.900,60.738 73.957 C 60.590 74.013,60.469 74.199,60.469 74.370 C 60.469 74.541,60.352 74.725,60.209 74.780 C 60.065 74.835,59.948 75.039,59.948 75.233 C 59.948 75.428,59.870 75.586,59.774 75.586 C 59.679 75.586,59.600 75.704,59.600 75.847 C 59.600 75.990,59.531 76.108,59.446 76.108 C 59.362 76.108,59.163 76.381,59.004 76.716 C 58.845 77.050,58.641 77.324,58.550 77.324 C 58.459 77.324,58.384 77.445,58.384 77.592 C 58.384 77.739,58.233 78.022,58.048 78.221 C 57.647 78.651,57.868 79.184,58.514 79.348 C 58.729 79.402,58.905 79.517,58.905 79.602 C 58.905 79.687,59.044 79.757,59.214 79.757 C 59.385 79.757,59.636 79.913,59.774 80.103 C 59.911 80.294,60.280 80.498,60.594 80.557 C 60.908 80.616,61.164 80.734,61.164 80.819 C 61.164 80.904,61.264 80.973,61.386 80.973 C 61.509 80.973,61.719 81.127,61.855 81.314 C 61.990 81.502,62.339 81.708,62.631 81.772 C 62.923 81.836,63.280 82.015,63.423 82.169 C 63.744 82.515,64.704 83.058,64.993 83.058 C 65.111 83.058,65.333 83.199,65.488 83.371 C 65.763 83.677,66.888 84.275,67.190 84.275 C 67.274 84.275,67.454 84.428,67.589 84.616 C 67.724 84.803,68.074 85.009,68.366 85.073 C 68.658 85.138,68.999 85.336,69.124 85.514 C 69.249 85.693,69.464 85.838,69.602 85.838 C 69.739 85.838,69.852 85.910,69.852 85.998 C 69.852 86.086,70.106 86.214,70.417 86.282 C 70.727 86.351,71.108 86.552,71.263 86.731 C 71.417 86.909,71.632 87.055,71.741 87.055 C 71.849 87.055,71.937 87.133,71.937 87.228 C 71.937 87.324,72.096 87.402,72.290 87.402 C 72.485 87.402,72.688 87.520,72.743 87.663 C 72.798 87.806,72.991 87.924,73.172 87.924 C 73.353 87.924,73.501 87.983,73.501 88.056 C 73.501 88.129,73.826 88.344,74.222 88.534 C 75.371 89.084,75.586 89.214,75.586 89.355 C 75.586 89.428,75.782 89.487,76.021 89.487 C 76.260 89.487,76.455 89.409,76.455 89.314 C 76.455 89.218,76.612 89.140,76.803 89.140 C 76.994 89.140,77.150 89.070,77.150 88.985 C 77.150 88.900,77.346 88.781,77.585 88.721 C 77.824 88.661,78.019 88.535,78.019 88.442 C 78.019 88.348,78.136 88.271,78.280 88.271 C 78.423 88.271,78.540 88.193,78.540 88.097 C 78.540 88.002,78.697 87.924,78.888 87.924 C 79.079 87.924,79.235 87.854,79.235 87.769 C 79.235 87.683,79.431 87.565,79.670 87.505 C 79.909 87.445,80.104 87.319,80.104 87.225 C 80.104 87.131,80.222 87.055,80.365 87.055 C 80.508 87.055,80.626 86.977,80.626 86.881 C 80.626 86.785,80.782 86.707,80.973 86.707 C 81.164 86.707,81.321 86.631,81.321 86.537 C 81.321 86.443,81.516 86.317,81.755 86.257 C 81.994 86.197,82.189 86.098,82.189 86.036 C 82.189 85.974,82.444 85.811,82.754 85.674 C 83.065 85.537,83.422 85.323,83.548 85.197 C 83.675 85.072,83.890 84.970,84.026 84.970 C 84.163 84.970,84.275 84.891,84.275 84.796 C 84.275 84.700,84.382 84.622,84.514 84.622 C 84.646 84.622,84.851 84.505,84.970 84.361 C 85.089 84.218,85.333 84.101,85.512 84.101 C 85.692 84.101,85.838 84.023,85.838 83.927 C 85.838 83.831,85.956 83.753,86.099 83.753 C 86.242 83.753,86.360 83.675,86.360 83.579 C 86.360 83.484,86.516 83.406,86.707 83.406 C 86.898 83.406,87.055 83.329,87.055 83.235 C 87.055 83.142,87.250 83.016,87.489 82.956 C 87.728 82.896,87.924 82.777,87.924 82.692 C 87.924 82.607,88.012 82.537,88.120 82.537 C 88.229 82.537,88.444 82.391,88.598 82.213 C 88.753 82.034,89.134 81.833,89.444 81.765 C 89.755 81.696,90.009 81.569,90.009 81.481 C 90.009 81.393,90.122 81.321,90.259 81.321 C 90.397 81.321,90.612 81.175,90.737 80.996 C 90.862 80.818,91.203 80.620,91.495 80.556 C 91.787 80.491,92.137 80.285,92.272 80.098 C 92.407 79.910,92.657 79.757,92.827 79.757 C 92.997 79.757,93.136 79.685,93.136 79.597 C 93.136 79.509,93.367 79.386,93.650 79.324 C 94.177 79.208,94.583 78.530,94.202 78.403 C 94.094 78.367,94.005 78.217,94.005 78.068 C 94.005 77.920,93.860 77.673,93.683 77.518 C 93.505 77.364,93.304 77.061,93.236 76.846 C 93.169 76.631,93.040 76.455,92.951 76.455 C 92.862 76.455,92.789 76.367,92.789 76.258 C 92.789 76.150,92.645 75.935,92.469 75.781 C 92.293 75.626,92.101 75.303,92.041 75.062 C 91.982 74.821,91.774 74.453,91.579 74.244 C 91.384 74.034,91.225 73.782,91.225 73.682 C 91.225 73.583,91.152 73.501,91.063 73.501 C 90.974 73.501,90.845 73.325,90.777 73.110 C 90.710 72.895,90.509 72.593,90.331 72.438 C 90.154 72.284,90.009 72.038,90.009 71.892 C 90.009 71.746,89.891 71.582,89.748 71.527 C 89.605 71.472,89.487 71.268,89.487 71.074 C 89.487 70.880,89.409 70.721,89.314 70.721 C 89.218 70.721,89.140 70.604,89.140 70.460 C 89.140 70.317,89.079 70.200,89.006 70.200 C 88.932 70.200,88.724 69.926,88.544 69.592 C 88.364 69.257,88.150 68.983,88.070 68.983 C 87.989 68.983,87.924 68.835,87.924 68.655 C 87.924 68.474,87.806 68.281,87.663 68.226 C 87.520 68.171,87.402 67.967,87.402 67.773 C 87.402 67.578,87.324 67.420,87.228 67.420 C 87.133 67.420,87.055 67.320,87.055 67.197 C 87.055 67.075,86.898 66.862,86.707 66.725 C 86.516 66.587,86.360 66.333,86.360 66.159 C 86.360 65.986,86.242 65.800,86.099 65.745 C 85.956 65.690,85.838 65.526,85.838 65.380 C 85.838 65.234,85.693 64.988,85.516 64.834 C 85.338 64.679,85.132 64.357,85.056 64.118 C 84.981 63.879,84.775 63.557,84.597 63.403 C 84.420 63.248,84.275 63.002,84.275 62.857 C 84.275 62.711,84.157 62.546,84.014 62.491 C 83.871 62.436,83.753 62.261,83.753 62.102 C 83.753 61.943,83.608 61.687,83.431 61.532 C 83.253 61.378,83.052 61.075,82.984 60.860 C 82.917 60.645,82.788 60.469,82.699 60.469 C 82.610 60.469,82.537 60.352,82.537 60.209 C 82.537 60.065,82.459 59.948,82.363 59.948 C 82.268 59.948,82.189 59.791,82.189 59.600 C 82.189 59.409,82.129 59.253,82.055 59.253 C 81.981 59.253,81.774 58.979,81.593 58.645 C 81.413 58.310,81.200 58.036,81.119 58.036 C 81.039 58.036,80.973 57.919,80.973 57.776 C 80.973 57.632,80.896 57.515,80.803 57.515 C 80.709 57.515,80.583 57.320,80.523 57.081 C 80.463 56.842,80.344 56.646,80.259 56.646 C 80.174 56.646,80.104 56.519,80.104 56.363 C 80.104 56.207,79.959 55.953,79.782 55.798 C 79.604 55.643,79.403 55.341,79.335 55.126 C 79.268 54.911,79.139 54.735,79.050 54.735 C 78.961 54.735,78.888 54.618,78.888 54.474 C 78.888 54.331,78.825 54.214,78.748 54.214 C 78.670 54.214,78.462 53.881,78.284 53.475 C 78.107 53.069,77.829 52.619,77.668 52.476 C 77.506 52.333,77.318 52.040,77.250 51.825 C 77.182 51.609,77.054 51.434,76.965 51.434 C 76.876 51.434,76.803 51.350,76.803 51.247 C 76.803 50.941,76.331 50.565,75.946 50.565 C 75.742 50.565,75.586 50.678,75.586 50.825 M76.455 59.208 C 76.455 59.353,76.600 59.599,76.778 59.754 C 76.955 59.908,77.162 60.230,77.237 60.469 C 77.312 60.708,77.519 61.030,77.696 61.185 C 77.874 61.339,78.019 61.593,78.019 61.749 C 78.019 61.905,78.092 62.033,78.181 62.033 C 78.270 62.033,78.399 62.209,78.467 62.424 C 78.535 62.639,78.716 62.932,78.870 63.076 C 79.024 63.219,79.285 63.629,79.451 63.988 C 79.616 64.346,79.831 64.639,79.928 64.639 C 80.025 64.639,80.104 64.796,80.104 64.987 C 80.104 65.178,80.177 65.334,80.266 65.334 C 80.355 65.334,80.484 65.510,80.552 65.725 C 80.620 65.940,80.820 66.243,80.998 66.397 C 81.175 66.552,81.321 66.767,81.321 66.875 C 81.321 66.984,81.397 67.072,81.491 67.072 C 81.585 67.072,81.711 67.268,81.771 67.507 C 81.830 67.745,81.949 67.941,82.034 67.941 C 82.120 67.941,82.189 68.069,82.189 68.225 C 82.189 68.381,82.335 68.635,82.512 68.789 C 82.690 68.944,82.890 69.246,82.958 69.461 C 83.026 69.676,83.155 69.852,83.244 69.852 C 83.333 69.852,83.406 69.970,83.406 70.113 C 83.406 70.256,83.472 70.374,83.553 70.374 C 83.634 70.374,83.847 70.706,84.026 71.112 C 84.205 71.518,84.479 71.968,84.636 72.111 C 84.792 72.255,84.975 72.548,85.043 72.763 C 85.111 72.978,85.240 73.154,85.329 73.154 C 85.418 73.154,85.491 73.242,85.491 73.351 C 85.491 73.459,85.635 73.674,85.811 73.828 C 85.986 73.983,86.179 74.307,86.238 74.547 C 86.298 74.788,86.506 75.156,86.700 75.365 C 86.895 75.575,87.055 75.827,87.055 75.927 C 87.055 76.026,87.117 76.108,87.192 76.108 C 87.268 76.108,87.448 76.368,87.592 76.686 C 87.857 77.271,87.713 77.672,87.236 77.672 C 87.136 77.672,87.055 77.734,87.055 77.810 C 87.055 77.886,86.703 78.093,86.273 78.270 C 85.843 78.448,85.491 78.659,85.491 78.740 C 85.491 78.822,85.374 78.888,85.230 78.888 C 85.087 78.888,84.970 78.966,84.970 79.062 C 84.970 79.157,84.811 79.235,84.617 79.235 C 84.422 79.235,84.219 79.353,84.164 79.496 C 84.109 79.639,83.916 79.757,83.735 79.757 C 83.554 79.757,83.406 79.835,83.406 79.930 C 83.406 80.026,83.288 80.104,83.145 80.104 C 83.002 80.104,82.884 80.182,82.884 80.278 C 82.884 80.374,82.738 80.452,82.558 80.452 C 82.379 80.452,82.135 80.569,82.016 80.712 C 81.897 80.856,81.692 80.973,81.560 80.973 C 81.428 80.973,81.321 81.051,81.321 81.147 C 81.321 81.242,81.213 81.321,81.081 81.321 C 80.950 81.321,80.745 81.438,80.626 81.581 C 80.507 81.725,80.262 81.842,80.083 81.842 C 79.904 81.842,79.757 81.920,79.757 82.016 C 79.757 82.111,79.639 82.189,79.496 82.189 C 79.353 82.189,79.235 82.268,79.235 82.363 C 79.235 82.459,79.087 82.537,78.907 82.537 C 78.726 82.537,78.533 82.654,78.478 82.798 C 78.423 82.941,78.219 83.058,78.025 83.058 C 77.830 83.058,77.672 83.136,77.672 83.232 C 77.672 83.328,77.583 83.406,77.475 83.406 C 77.367 83.406,77.136 83.570,76.961 83.771 C 76.532 84.266,75.510 84.266,75.080 83.771 C 74.906 83.570,74.675 83.406,74.567 83.406 C 74.459 83.406,74.370 83.328,74.370 83.232 C 74.370 83.136,74.211 83.058,74.017 83.058 C 73.823 83.058,73.619 82.941,73.564 82.798 C 73.509 82.654,73.316 82.537,73.135 82.537 C 72.954 82.537,72.806 82.459,72.806 82.363 C 72.806 82.268,72.689 82.189,72.546 82.189 C 72.402 82.189,72.285 82.111,72.285 82.016 C 72.285 81.920,72.138 81.842,71.959 81.842 C 71.779 81.842,71.535 81.725,71.416 81.581 C 71.297 81.438,71.092 81.321,70.960 81.321 C 70.829 81.321,70.721 81.242,70.721 81.147 C 70.721 81.051,70.613 80.973,70.482 80.973 C 70.350 80.973,70.145 80.856,70.026 80.712 C 69.907 80.569,69.663 80.452,69.484 80.452 C 69.304 80.452,69.157 80.374,69.157 80.278 C 69.157 80.182,69.040 80.104,68.897 80.104 C 68.753 80.104,68.636 80.026,68.636 79.930 C 68.636 79.835,68.488 79.757,68.307 79.757 C 68.126 79.757,67.933 79.639,67.878 79.496 C 67.823 79.353,67.619 79.235,67.425 79.235 C 67.231 79.235,67.072 79.157,67.072 79.062 C 67.072 78.966,66.955 78.888,66.811 78.888 C 66.668 78.888,66.551 78.811,66.551 78.717 C 66.551 78.624,66.355 78.498,66.116 78.438 C 65.877 78.378,65.682 78.259,65.682 78.174 C 65.682 78.089,65.526 78.019,65.334 78.019 C 65.143 78.019,64.987 77.941,64.987 77.845 C 64.987 77.750,64.905 77.672,64.806 77.672 C 64.329 77.672,64.184 77.271,64.450 76.686 C 64.594 76.368,64.774 76.108,64.849 76.108 C 64.925 76.108,64.987 76.019,64.987 75.911 C 64.987 75.803,65.132 75.588,65.310 75.433 C 65.487 75.279,65.688 74.976,65.756 74.761 C 65.824 74.546,65.952 74.370,66.041 74.370 C 66.130 74.370,66.203 74.214,66.203 74.023 C 66.203 73.831,66.281 73.675,66.377 73.675 C 66.473 73.675,66.551 73.558,66.551 73.414 C 66.551 73.271,66.624 73.154,66.713 73.154 C 66.802 73.154,66.930 72.978,66.998 72.763 C 67.066 72.548,67.256 72.255,67.420 72.111 C 67.583 71.968,67.773 71.675,67.841 71.460 C 67.909 71.245,68.037 71.069,68.126 71.069 C 68.216 71.069,68.288 70.912,68.288 70.721 C 68.288 70.530,68.367 70.374,68.462 70.374 C 68.558 70.374,68.636 70.256,68.636 70.113 C 68.636 69.970,68.709 69.852,68.798 69.852 C 68.887 69.852,69.016 69.676,69.084 69.461 C 69.151 69.246,69.352 68.944,69.530 68.789 C 69.707 68.635,69.852 68.389,69.852 68.243 C 69.852 68.097,69.970 67.933,70.113 67.878 C 70.256 67.823,70.374 67.648,70.374 67.489 C 70.374 67.330,70.512 67.073,70.680 66.919 C 70.849 66.764,71.140 66.344,71.328 65.986 C 71.515 65.628,71.729 65.334,71.803 65.334 C 71.877 65.334,71.937 65.186,71.937 65.006 C 71.937 64.825,72.058 64.630,72.206 64.573 C 72.354 64.517,72.557 64.235,72.658 63.947 C 72.758 63.659,72.911 63.423,72.997 63.423 C 73.083 63.423,73.154 63.306,73.154 63.162 C 73.154 63.019,73.223 62.902,73.309 62.902 C 73.394 62.902,73.513 62.706,73.573 62.467 C 73.633 62.228,73.758 62.033,73.852 62.033 C 73.946 62.033,74.023 61.885,74.023 61.704 C 74.023 61.523,74.144 61.329,74.291 61.272 C 74.439 61.215,74.642 60.933,74.743 60.645 C 74.843 60.357,74.996 60.122,75.082 60.122 C 75.168 60.122,75.239 60.004,75.239 59.861 C 75.239 59.718,75.317 59.600,75.413 59.600 C 75.508 59.600,75.586 59.450,75.586 59.267 C 75.586 58.913,75.880 58.731,76.238 58.863 C 76.358 58.907,76.455 59.062,76.455 59.208 M96.233 83.102 C 96.107 83.221,95.769 83.436,95.482 83.579 C 95.195 83.723,94.858 83.938,94.731 84.057 C 94.605 84.177,94.390 84.275,94.253 84.275 C 94.117 84.275,94.005 84.353,94.005 84.448 C 94.005 84.544,93.849 84.622,93.658 84.622 C 93.467 84.622,93.310 84.682,93.310 84.755 C 93.310 84.887,92.795 85.201,92.224 85.417 C 92.057 85.480,91.920 85.600,91.920 85.685 C 91.920 85.769,91.764 85.838,91.573 85.838 C 91.381 85.838,91.225 85.915,91.225 86.009 C 91.225 86.103,91.030 86.228,90.791 86.288 C 90.552 86.348,90.356 86.467,90.356 86.552 C 90.356 86.637,90.239 86.707,90.096 86.707 C 89.952 86.707,89.835 86.785,89.835 86.881 C 89.835 86.977,89.679 87.055,89.487 87.055 C 89.296 87.055,89.140 87.131,89.140 87.225 C 89.140 87.319,88.944 87.445,88.705 87.505 C 88.467 87.565,88.271 87.683,88.271 87.769 C 88.271 87.854,88.158 87.924,88.020 87.924 C 87.882 87.924,87.667 88.069,87.542 88.248 C 87.418 88.426,87.061 88.628,86.751 88.696 C 86.440 88.764,86.186 88.892,86.186 88.980 C 86.186 89.068,86.058 89.140,85.902 89.140 C 85.746 89.140,85.492 89.285,85.337 89.463 C 85.183 89.640,84.861 89.847,84.622 89.922 C 84.383 89.997,84.061 90.204,83.907 90.381 C 83.752 90.559,83.539 90.704,83.434 90.704 C 83.114 90.704,81.817 91.435,81.729 91.665 C 81.683 91.784,81.436 91.924,81.179 91.976 C 80.922 92.027,80.540 92.232,80.329 92.429 C 80.118 92.627,79.824 92.789,79.677 92.789 C 79.530 92.789,79.409 92.861,79.409 92.949 C 79.409 93.037,79.190 93.157,78.922 93.216 C 78.654 93.275,78.323 93.476,78.188 93.664 C 78.053 93.852,77.803 94.005,77.633 94.005 C 77.463 94.005,77.324 94.075,77.324 94.160 C 77.324 94.245,77.129 94.364,76.890 94.424 C 76.651 94.484,76.455 94.610,76.455 94.704 C 76.455 94.797,76.260 94.874,76.021 94.874 C 75.782 94.874,75.586 94.797,75.586 94.704 C 75.586 94.610,75.391 94.484,75.152 94.424 C 74.913 94.364,74.718 94.245,74.718 94.160 C 74.718 94.075,74.561 94.005,74.370 94.005 C 74.179 94.005,74.023 93.927,74.023 93.831 C 74.023 93.736,73.905 93.658,73.762 93.658 C 73.619 93.658,73.501 93.581,73.501 93.487 C 73.501 93.393,73.306 93.268,73.067 93.208 C 72.828 93.148,72.632 93.029,72.632 92.944 C 72.632 92.859,72.493 92.789,72.323 92.789 C 72.153 92.789,71.902 92.633,71.764 92.442 C 71.627 92.251,71.258 92.047,70.944 91.988 C 70.630 91.930,70.374 91.812,70.374 91.727 C 70.374 91.642,70.292 91.573,70.193 91.573 C 70.093 91.573,69.840 91.413,69.631 91.218 C 69.422 91.023,69.054 90.815,68.813 90.756 C 68.572 90.697,68.253 90.510,68.104 90.340 C 67.955 90.171,67.623 89.979,67.366 89.915 C 67.109 89.850,66.898 89.728,66.898 89.642 C 66.898 89.557,66.759 89.487,66.589 89.487 C 66.419 89.487,66.168 89.331,66.030 89.141 C 65.893 88.950,65.526 88.746,65.216 88.688 C 64.876 88.624,64.610 88.451,64.547 88.253 C 64.489 88.072,64.291 87.924,64.106 87.924 C 63.922 87.924,63.771 87.852,63.771 87.764 C 63.771 87.676,63.517 87.548,63.206 87.480 C 62.896 87.411,62.515 87.210,62.360 87.031 C 62.206 86.853,61.991 86.707,61.882 86.707 C 61.774 86.707,61.685 86.637,61.685 86.552 C 61.685 86.467,61.490 86.348,61.251 86.288 C 61.012 86.228,60.817 86.103,60.817 86.009 C 60.817 85.915,60.660 85.838,60.469 85.838 C 60.278 85.838,60.122 85.760,60.122 85.665 C 60.122 85.569,60.004 85.491,59.861 85.491 C 59.718 85.491,59.600 85.413,59.600 85.317 C 59.600 85.222,59.442 85.143,59.247 85.143 C 59.053 85.143,58.849 85.026,58.794 84.883 C 58.739 84.739,58.546 84.622,58.365 84.622 C 58.185 84.622,58.036 84.544,58.036 84.448 C 58.036 84.353,57.925 84.275,57.788 84.275 C 57.652 84.275,57.437 84.172,57.310 84.047 C 57.184 83.921,56.827 83.707,56.516 83.570 C 56.205 83.433,55.951 83.262,55.951 83.190 C 55.951 82.519,54.511 83.238,54.318 84.005 C 54.248 84.285,54.055 84.637,53.889 84.786 C 53.574 85.069,52.997 86.188,52.997 86.516 C 52.997 86.621,52.919 86.707,52.824 86.707 C 52.728 86.707,52.650 86.864,52.650 87.055 C 52.650 87.246,52.572 87.402,52.476 87.402 C 52.381 87.402,52.300 87.578,52.297 87.793 C 52.294 88.008,52.176 88.336,52.036 88.521 C 51.896 88.707,51.781 89.078,51.781 89.347 C 51.781 89.615,51.703 89.835,51.607 89.835 C 51.512 89.835,51.434 90.054,51.434 90.321 C 51.434 90.589,51.358 90.884,51.265 90.977 C 51.172 91.070,51.043 91.711,50.979 92.402 C 50.915 93.092,50.795 93.658,50.714 93.658 C 50.632 93.658,50.565 95.495,50.565 97.741 C 50.565 99.987,50.632 101.825,50.714 101.825 C 50.795 101.825,50.915 102.390,50.979 103.080 C 51.043 103.771,51.172 104.412,51.265 104.505 C 51.358 104.598,51.434 104.893,51.434 105.161 C 51.434 105.428,51.512 105.647,51.607 105.647 C 51.703 105.647,51.781 105.867,51.781 106.135 C 51.781 106.404,51.896 106.775,52.036 106.961 C 52.176 107.146,52.294 107.474,52.297 107.689 C 52.300 107.904,52.381 108.080,52.476 108.080 C 52.572 108.080,52.650 108.236,52.650 108.427 C 52.650 108.619,52.728 108.775,52.824 108.775 C 52.919 108.775,52.997 108.861,52.997 108.966 C 52.997 109.294,53.574 110.413,53.889 110.697 C 54.055 110.846,54.241 111.170,54.304 111.418 C 54.366 111.666,54.566 112.029,54.750 112.226 C 54.933 112.422,55.083 112.665,55.083 112.764 C 55.083 112.864,55.155 112.945,55.245 112.945 C 55.334 112.945,55.455 113.098,55.514 113.284 C 55.573 113.470,55.774 113.671,55.960 113.730 C 56.146 113.789,56.299 113.956,56.299 114.101 C 56.299 114.443,59.318 117.463,59.661 117.463 C 59.806 117.463,59.973 117.615,60.032 117.802 C 60.091 117.988,60.292 118.189,60.478 118.248 C 60.664 118.307,60.817 118.428,60.817 118.517 C 60.817 118.606,60.905 118.679,61.014 118.679 C 61.122 118.679,61.337 118.823,61.491 118.999 C 61.646 119.175,62.002 119.376,62.283 119.445 C 62.564 119.515,62.916 119.707,63.065 119.873 C 63.349 120.188,64.468 120.765,64.796 120.765 C 64.901 120.765,64.987 120.843,64.987 120.938 C 64.987 121.034,65.143 121.112,65.334 121.112 C 65.526 121.112,65.682 121.190,65.682 121.286 C 65.682 121.381,65.871 121.460,66.102 121.460 C 66.333 121.460,66.550 121.543,66.584 121.645 C 66.617 121.746,66.976 121.874,67.380 121.928 C 67.784 121.982,68.115 122.095,68.115 122.178 C 68.115 122.261,68.334 122.328,68.601 122.328 C 68.869 122.328,69.164 122.404,69.257 122.497 C 69.349 122.590,69.991 122.719,70.681 122.783 C 71.372 122.847,71.937 122.967,71.937 123.048 C 71.937 123.130,73.775 123.197,76.021 123.197 C 78.267 123.197,80.104 123.130,80.104 123.048 C 80.104 122.967,80.669 122.847,81.360 122.783 C 82.051 122.719,82.692 122.590,82.785 122.497 C 82.878 122.404,83.173 122.328,83.440 122.328 C 83.708 122.328,83.927 122.261,83.927 122.178 C 83.927 122.095,84.258 121.982,84.662 121.928 C 85.066 121.874,85.424 121.746,85.458 121.645 C 85.492 121.543,85.709 121.460,85.940 121.460 C 86.171 121.460,86.360 121.381,86.360 121.286 C 86.360 121.190,86.516 121.112,86.707 121.112 C 86.898 121.112,87.055 121.034,87.055 120.938 C 87.055 120.843,87.132 120.765,87.227 120.765 C 87.524 120.765,88.792 120.168,88.792 120.029 C 88.792 119.955,88.949 119.896,89.140 119.896 C 89.331 119.896,89.487 119.821,89.487 119.730 C 89.487 119.639,89.761 119.435,90.096 119.276 C 90.430 119.117,90.704 118.918,90.704 118.833 C 90.704 118.749,90.821 118.679,90.964 118.679 C 91.108 118.679,91.225 118.606,91.225 118.517 C 91.225 118.428,91.377 118.307,91.564 118.248 C 91.750 118.189,91.951 117.988,92.010 117.802 C 92.069 117.615,92.236 117.463,92.380 117.463 C 92.723 117.463,95.743 114.443,95.743 114.101 C 95.743 113.956,95.895 113.789,96.081 113.730 C 96.268 113.671,96.468 113.470,96.528 113.284 C 96.587 113.098,96.708 112.945,96.797 112.945 C 96.886 112.945,96.959 112.857,96.959 112.748 C 96.959 112.640,97.103 112.425,97.279 112.271 C 97.455 112.116,97.655 111.760,97.725 111.479 C 97.794 111.198,97.987 110.846,98.153 110.697 C 98.468 110.413,99.044 109.294,99.044 108.966 C 99.044 108.861,99.123 108.775,99.218 108.775 C 99.314 108.775,99.392 108.619,99.392 108.427 C 99.392 108.236,99.470 108.080,99.566 108.080 C 99.661 108.080,99.739 107.891,99.739 107.660 C 99.739 107.429,99.823 107.212,99.924 107.178 C 100.026 107.145,100.154 106.786,100.208 106.382 C 100.262 105.978,100.374 105.647,100.457 105.647 C 100.540 105.647,100.608 105.428,100.608 105.161 C 100.608 104.893,100.684 104.598,100.777 104.505 C 100.870 104.412,100.998 103.771,101.063 103.080 C 101.127 102.390,101.246 101.825,101.328 101.825 C 101.410 101.825,101.477 99.987,101.477 97.741 C 101.477 95.495,101.410 93.658,101.328 93.658 C 101.246 93.658,101.127 93.092,101.063 92.402 C 100.998 91.711,100.870 91.070,100.777 90.977 C 100.684 90.884,100.608 90.589,100.608 90.321 C 100.608 90.054,100.540 89.835,100.457 89.835 C 100.374 89.835,100.262 89.504,100.208 89.100 C 100.154 88.696,100.026 88.338,99.924 88.304 C 99.823 88.270,99.739 88.053,99.739 87.822 C 99.739 87.591,99.661 87.402,99.566 87.402 C 99.470 87.402,99.392 87.246,99.392 87.055 C 99.392 86.864,99.314 86.707,99.218 86.707 C 99.123 86.707,99.044 86.621,99.044 86.516 C 99.044 86.188,98.468 85.069,98.153 84.786 C 97.987 84.637,97.800 84.312,97.738 84.064 C 97.506 83.141,96.722 82.639,96.233 83.102 " stroke="none" fill="#04a4fc" fill-rule="evenodd"/>
    <path id="path2" d="" stroke="none" fill="#040c14" fill-rule="evenodd"/>
    <path id="path3" d="" stroke="none" fill="#08a8c4" fill-rule="evenodd"/>
    <path id="path4" d="" stroke="none" fill="#085c4c" fill-rule="evenodd"/>
  </g>
</svg>