<svg xmlns="http://www.w3.org/2000/svg" viewBox="-0.01 11.88 561.83 400.8">
  <g id="Layer_2" data-name="Layer 2">
    <g id="Layer_1-2" data-name="Layer 1">
      <path d="M409.46,13.34C334.29,26.64,281,77.25,227.62,127.91c-17,16.13-34,32.26-51.69,47.2-7.22-3.3-17.16-4.68-25.27-5.81-3.78-.52-7.15-1-9.68-1.57-39.31-3.25-84.06,6.83-111.69,36.57-43.93,49.36-43,125.62,34.06,136.44a130.07,130.07,0,0,0,54.36-1.84,38.06,38.06,0,0,0,2.45,6.92c.61,1.41,1.21,2.82,1.7,4.26A230,230,0,0,1,129.53,373h0c3.36,11.28,6.71,22.56,12.43,32.74a9.44,9.44,0,0,0,7,3.83,9.37,9.37,0,0,0,6.71,3.11,771.49,771.49,0,0,1,182.22-54c35.16-6.66,70.37-9.93,105.8-13.22h0c20.15-1.87,40.38-3.75,60.71-6.27,10.35.23,14.18-8.87,11.68-15.49a10.4,10.4,0,0,0,1-6.91c-1.78-7.44-4-14.77-6.17-22.09h0L509.8,291q-.84-2.89-1.7-5.81c-2.45-8.35-4.91-16.72-6.84-25.23v0c9-4.94,18.31-16.28,24.67-24,1.73-2.1,3.23-3.93,4.46-5.3a140,140,0,0,0,24.91-51C584.28,77,513.28.22,409.46,13.34ZM511,220.44A115.2,115.2,0,0,1,490.53,241a48.32,48.32,0,0,0-9.38-1.44h0c-1.2-.1-2.38-.21-3.49-.34,9.6-16.09,14.55-41.45,14-52.23,1.14-13.93-19.75-16-21.23-2.11A126.38,126.38,0,0,1,466.87,210,64.17,64.17,0,0,1,455,233a10.9,10.9,0,0,0-4.66,3.41,10.13,10.13,0,0,0-1,1.51q-12.3-.22-24.58.12c6.26-14.18,9.72-30.93,8.17-38a128.62,128.62,0,0,0-5.32-25.75c-4.39-13.33-24.38-6.93-20.43,6.46,7,19.19,5,42.47-8.34,58.6q-23.88,1.8-47.55,5.67a436.37,436.37,0,0,0-57.67,16.1,10.73,10.73,0,0,0,6.36,20.5c4.14-1.25,8.27-2.55,12.4-3.84h0c10.21-3.2,20.4-6.4,30.8-8.95,19.62-4.62,38.64-6.62,58.51-7.82a10.14,10.14,0,0,0,4-.23c4.77-.26,9.59-.49,14.49-.69,19.82-1.63,39.63-.53,59.34.77.2,5.07,2,10.82,3.64,16h0a85.63,85.63,0,0,1,2.35,8.4c1.7,5.63,3.24,11.31,4.78,17h0c1.44,5.29,2.88,10.58,4.44,15.82-17.7,2.06-35.46,3.81-53.22,5.55h0c-45.12,4.43-90.29,8.86-134.63,18.61a795,795,0,0,0-96.18,25.82l-.09,0h0c-17.94,5.74-36.06,11.54-52.53,20.71-2.54-6.88-4.78-13.88-7-20.89-3.89-12.14-7.77-24.29-13.16-35.76,12.38-4.28,26.78-10.29,22.16-22.43a11,11,0,0,0-14.5-5.26C111.11,322.92,62.52,330,30.9,302.59,9.64,276,28.36,235.75,49.66,214.72c28.6-24.4,68.66-29.45,105-22.61q-8.72,6.55-17.75,12.56c-11.93,8-.24,25.58,11.72,18.28,33.39-21,61.77-48.32,90.17-75.66h0c17.87-17.21,35.76-34.43,54.9-50.08,43.34-36.7,99.63-70.73,158.54-62,29.37,6,60.95,19.32,74.85,47.65C550.45,125.73,540.54,182.87,511,220.44Z" fill="#fff"/>
      <path d="M260.57,303.29a396,396,0,0,0-65,20.1l-2.71,1.07c-9.61,3.74-23.72,9.23-17,21.27,6.35,8.28,14.88,3.79,23.18-.59,3.91-2.05,7.76-4.09,11.31-4.74a297.4,297.4,0,0,1,29.81-10c6.43-1.69,12.91-3.28,19.36-4.86h0l7.43-1.83C280.26,319.5,274,299.21,260.57,303.29Z" fill="#fff"/>
    </g>
  </g>
</svg>
