<svg xmlns="http://www.w3.org/2000/svg" fill="none" viewBox="0 0 35.88 40">
  <path fill-rule="evenodd" clip-rule="evenodd" d="M17.9358 9.20058C18.4439 9.20058 18.9328 9.11819 19.3899 8.96605C20.104 8.80467 20.8417 8.76953 21.5694 8.863C22.3924 8.96872 23.1862 9.23682 23.9047 9.65176C24.6233 10.0667 25.2523 10.6202 25.7552 11.2802C26.2172 11.8864 26.5644 12.5715 26.7802 13.3014C26.8796 13.7466 27.0474 14.1845 27.2876 14.6004C28.5579 16.8007 31.3714 17.5546 33.5717 16.2843C35.7719 15.0139 36.5258 12.2004 35.2555 10.0001C34.1951 8.1635 32.0595 7.33468 30.1028 7.84974L30.1008 7.84195C29.3007 8.06182 28.4649 8.12061 27.6419 8.01489C26.8189 7.90918 26.0251 7.64108 25.3066 7.22614C24.588 6.81121 23.9591 6.2577 23.4561 5.59774C22.9532 4.93778 22.5864 4.18451 22.3769 3.38165L22.3732 3.38264C21.8394 1.43288 20.0549 0 17.9358 0C15.8169 0 14.0326 1.43254 13.4986 3.38195L13.4975 3.38165C13.288 4.18451 12.9211 4.93778 12.4182 5.59774C11.9153 6.2577 11.2863 6.81121 10.5678 7.22614C9.84923 7.64108 9.05543 7.90918 8.23245 8.01489C7.40947 8.12061 6.57369 8.06182 5.7736 7.84195L5.77189 7.84846C3.81464 7.33225 1.67786 8.161 0.61709 9.99831C-0.653245 12.1986 0.100628 15.0121 2.30091 16.2824C3.42522 16.9315 4.70963 17.0521 5.86646 16.7213C6.63822 16.5219 7.44125 16.4715 8.23245 16.5731C9.05543 16.6788 9.84923 16.9469 10.5678 17.3619C11.2863 17.7768 11.9153 18.3303 12.4182 18.9903C12.8959 19.617 13.2508 20.328 13.4647 21.0857C13.9531 23.1017 15.7696 24.5989 17.9358 24.5989C20.4765 24.5989 22.5361 22.5393 22.5361 19.9986C22.5361 17.4579 20.4765 15.3983 17.9358 15.3983C17.4749 15.3983 17.0298 15.4661 16.61 15.5922C15.8569 15.7788 15.0753 15.8239 14.3049 15.725C13.482 15.6193 12.6882 15.3512 11.9696 14.9362C11.2511 14.5213 10.6221 13.9678 10.1192 13.3078C10.0148 13.1708 9.91621 13.0298 9.82372 12.8851C9.73371 12.7037 9.6864 12.5033 9.6864 12.2994C9.6864 12.0843 9.73906 11.8731 9.83897 11.684C9.92625 11.5486 10.0188 11.4164 10.1166 11.2878C10.619 10.6266 11.2478 10.0719 11.9665 9.65583C12.6852 9.2398 13.4794 8.97076 14.3029 8.86434C15.0287 8.77055 15.7646 8.80473 16.4772 8.96455C16.9356 9.11765 17.426 9.20058 17.9358 9.20058ZM35.2584 30.0006C36.5287 27.8004 35.7748 24.9869 33.5745 23.7165C31.3743 22.4462 28.5608 23.2001 27.2904 25.4003C27.0874 25.752 26.9361 26.1193 26.8341 26.4935L26.8317 26.4929C26.6222 27.2957 26.2554 28.049 25.7525 28.709C25.2495 29.3689 24.6206 29.9224 23.902 30.3374C23.1835 30.7523 22.3897 31.0204 21.5667 31.1261C20.7962 31.2251 20.0146 31.1799 19.2615 30.9933C18.8417 30.8672 18.3967 30.7994 17.9358 30.7994C17.4749 30.7994 17.0298 30.8672 16.61 30.9934C15.8569 31.1799 15.0753 31.2251 14.3049 31.1261C13.482 31.0204 12.6882 30.7523 11.9696 30.3374C11.2511 29.9224 10.6221 29.3689 10.1192 28.709C9.83622 28.3376 9.59634 27.9368 9.40332 27.5142C9.33857 26.8915 9.14538 26.2719 8.8133 25.6941C7.54297 23.4837 4.72129 22.7216 2.51091 23.992C0.300525 25.2623 -0.461534 28.084 0.808801 30.2944C2.07914 32.5047 4.90081 33.2668 7.1112 31.9965C7.15091 31.9736 7.19015 31.9503 7.22892 31.9265C7.56338 31.9156 7.89896 31.9314 8.23245 31.9742C9.05543 32.0799 9.84923 32.348 10.5678 32.763C11.2863 33.1779 11.9153 33.7314 12.4182 34.3914C12.8959 35.0182 13.2508 35.7292 13.4647 36.4869C13.9532 38.5028 15.7697 40 17.9358 40C20.1016 40 21.9178 38.5033 22.4066 36.4879C22.6205 35.7298 22.9756 35.0184 23.4534 34.3914C23.9563 33.7314 24.5853 33.1779 25.3039 32.763C26.0224 32.348 26.8162 32.0799 27.6392 31.9742C28.4211 31.8738 29.2147 31.9218 29.9781 32.1155C31.9688 32.7017 34.1749 31.8773 35.2584 30.0006Z" fill="#F24F83"/>
</svg>