<?xml version="1.0" standalone="no"?>
<!DOCTYPE svg PUBLIC "-//W3C//DTD SVG 20010904//EN"
 "http://www.w3.org/TR/2001/REC-SVG-20010904/DTD/svg10.dtd">
<svg version="1.0" xmlns="http://www.w3.org/2000/svg"
 width="500.000000pt" height="500.000000pt" viewBox="0 0 500.000000 500.000000"
 preserveAspectRatio="xMidYMid meet">
<metadata>
Created by potrace 1.16, written by Peter Selinger 2001-2019
</metadata>
<g transform="translate(0.000000,500.000000) scale(0.100000,-0.100000)"
fill="#FFFFFF" stroke="none">
<path d="M2400 4810 l0 -30 126 0 c97 0 124 3 119 13 -4 6 1 3 9 -7 9 -11 16
-14 16 -8 0 8 9 10 28 6 l27 -7 -23 25 c-12 13 -19 28 -15 31 3 4 -60 7 -140
7 l-147 0 0 -30z"/>
<path d="M2270 4760 c-41 -4 -85 -6 -97 -3 -13 3 -23 0 -23 -6 0 -6 -8 -11
-17 -11 -14 0 -15 2 -4 9 8 5 -29 9 -98 10 -110 2 -111 2 -111 -22 0 -25 24
-33 47 -15 7 5 13 5 17 0 7 -12 -151 -53 -172 -44 -10 3 -13 1 -8 -6 4 -7 2
-12 -3 -12 -6 0 -11 5 -11 10 0 6 -25 10 -55 10 -52 0 -55 -1 -55 -25 0 -14 5
-25 10 -25 6 0 10 5 10 11 0 5 5 7 12 3 14 -9 -65 -46 -99 -46 -13 0 -20 -4
-17 -9 3 -5 0 -9 -5 -9 -6 0 -11 5 -11 10 0 6 -13 10 -30 10 -18 0 -30 -5 -30
-13 0 -16 32 -18 43 -3 6 7 7 6 4 -4 -2 -8 -10 -15 -18 -15 -8 0 -16 -3 -19
-6 -19 -23 -89 -46 -128 -42 -33 4 -42 2 -42 -10 0 -9 5 -19 12 -23 7 -4 8 -3
4 4 -5 8 -1 10 10 5 12 -4 15 -3 10 5 -4 7 -2 12 3 12 6 0 11 -4 11 -10 0 -12
-35 -31 -44 -23 -3 3 -6 1 -6 -5 0 -6 -13 -18 -30 -27 -16 -9 -30 -12 -30 -8
0 4 -6 0 -12 -8 -15 -18 -123 -95 -115 -82 3 5 -8 10 -24 11 -29 2 -41 -19
-19 -33 6 -4 9 -1 8 6 -2 6 3 14 10 16 30 11 7 -18 -45 -57 -32 -24 -52 -36
-46 -28 10 12 10 15 -2 15 -8 0 -12 -4 -9 -8 6 -11 -56 -80 -66 -74 -5 3 -12
0 -16 -6 -5 -8 -2 -10 7 -4 8 4 -4 -8 -26 -26 -50 -42 -62 -54 -104 -104 -18
-22 -30 -34 -26 -26 6 9 4 12 -4 7 -6 -4 -9 -11 -6 -16 6 -10 -63 -72 -74 -66
-4 3 -8 -5 -8 -16 -2 -24 -64 -119 -73 -113 -4 2 -7 -1 -7 -8 0 -15 -69 -117
-75 -111 -3 2 -5 -2 -5 -9 0 -6 -20 -48 -46 -92 -25 -44 -58 -108 -73 -142
-14 -35 -31 -60 -37 -56 -5 3 -7 0 -5 -8 3 -8 -4 -36 -14 -64 -11 -27 -27 -72
-35 -98 -9 -30 -18 -45 -25 -41 -8 5 -9 1 -5 -9 4 -10 -4 -59 -17 -110 -14
-50 -27 -109 -31 -130 -3 -21 -10 -35 -16 -31 -6 3 -6 10 -1 17 15 19 12 67
-4 67 -11 0 -14 -16 -13 -71 1 -44 5 -66 10 -58 7 11 9 10 9 -3 0 -10 -4 -18
-10 -18 -5 0 -10 -8 -10 -17 0 -16 2 -16 11 -3 9 12 10 11 4 -5 -17 -53 -27
-253 -20 -420 5 -99 8 -199 7 -223 -1 -25 3 -40 8 -37 6 4 10 -3 10 -14 0 -11
-5 -23 -10 -26 -6 -4 -10 -53 -10 -116 0 -108 0 -109 23 -109 30 0 40 10 26
26 -7 9 -7 18 0 31 9 16 11 15 12 -7 3 -35 4 -41 18 -74 6 -16 10 -35 7 -43
-3 -7 -1 -13 4 -13 6 0 10 -5 10 -11 0 -5 -4 -8 -9 -5 -4 3 -9 -28 -10 -69 -2
-74 -2 -75 23 -75 34 0 40 14 20 45 -9 14 -12 25 -8 25 5 0 3 4 -5 9 -8 5 -9
11 -3 15 9 5 36 -53 37 -79 0 -5 6 -16 13 -24 7 -7 10 -22 6 -33 -5 -15 -3
-19 7 -13 11 6 12 5 2 -6 -7 -7 -13 -32 -13 -56 0 -37 3 -43 21 -43 14 0 19 5
16 15 -4 8 -1 17 5 21 7 4 8 3 4 -4 -4 -7 -2 -12 4 -12 6 0 8 -4 5 -10 -3 -5
-2 -10 4 -10 9 0 20 -22 22 -45 0 -5 7 -14 15 -18 8 -5 12 -12 9 -18 -4 -5 -1
-9 5 -9 6 0 8 -4 5 -10 -3 -5 -1 -10 6 -10 7 0 9 -3 6 -7 -4 -3 1 -12 11 -20
13 -10 14 -13 2 -11 -17 3 -51 59 -43 70 2 5 -1 8 -6 8 -6 0 -11 -20 -11 -45
l0 -45 38 0 c27 0 41 -6 50 -21 8 -12 10 -19 5 -16 -5 3 -10 -5 -11 -19 -1
-13 2 -24 8 -24 15 0 21 18 8 24 -8 4 -7 4 2 2 8 -2 14 -9 13 -15 -2 -6 1 -11
6 -11 14 0 61 -79 51 -85 -6 -3 -10 -22 -10 -41 0 -33 1 -34 37 -34 37 0 37 0
15 16 -12 8 -27 24 -33 35 -10 19 -9 20 11 9 11 -6 18 -15 15 -19 -2 -5 7 -16
21 -26 14 -9 23 -19 20 -22 -3 -4 0 -13 7 -21 9 -13 9 -14 0 -8 -9 5 -13 -1
-13 -18 0 -19 5 -26 19 -26 11 0 23 5 27 12 4 6 3 8 -4 4 -6 -3 -13 -2 -16 3
-11 16 11 22 24 6 7 -8 9 -15 6 -15 -4 0 29 -34 74 -77 64 -61 191 -203 140
-155 -19 16 -30 15 -30 -3 0 -17 31 -20 47 -4 7 7 17 2 33 -18 12 -15 23 -26
24 -23 2 3 10 -1 19 -9 9 -7 14 -18 11 -23 -3 -5 -17 1 -30 13 l-24 22 0 -27
c0 -25 3 -27 32 -26 18 1 38 1 43 0 6 -1 14 -2 18 -1 4 1 10 -6 13 -14 3 -8
10 -13 15 -10 4 3 13 -4 19 -16 12 -21 12 -21 -18 -3 -17 10 -28 22 -25 27 3
6 1 7 -5 3 -7 -4 -12 -20 -12 -37 0 -27 2 -29 40 -29 31 0 40 4 41 18 0 10 3
12 6 4 3 -7 20 -19 39 -27 19 -8 34 -19 34 -25 0 -6 6 -8 13 -4 10 6 10 4 0
-7 -7 -7 -13 -19 -13 -26 0 -16 42 -17 58 -1 9 9 12 9 12 -1 0 -7 5 -9 10 -6
6 3 13 -1 16 -9 3 -9 11 -13 17 -9 6 3 7 1 3 -5 -4 -6 -12 -9 -19 -6 -8 3 -14
-6 -15 -26 l-2 -30 64 0 c42 0 66 4 69 13 4 9 6 9 6 -1 1 -7 6 -10 11 -7 6 3
10 2 10 -3 0 -5 6 -9 13 -9 25 -1 79 -30 69 -37 -6 -4 -25 0 -41 9 -40 20 -41
20 -41 -15 l0 -30 68 0 c40 0 73 5 80 12 9 9 12 9 12 -1 0 -7 4 -10 9 -7 4 3
22 0 40 -7 26 -10 31 -17 31 -44 l0 -33 76 0 c47 0 73 4 69 10 -3 5 -1 10 4
10 6 0 11 -4 11 -10 0 -5 5 -10 11 -10 5 0 7 6 3 13 -6 9 -5 9 7 0 15 -12 18
-13 47 -13 14 0 17 -7 14 -40 l-4 -40 481 0 481 0 0 24 c0 14 -6 28 -12 33
-16 9 49 24 106 25 27 0 35 3 25 9 -9 5 -10 9 -2 9 6 0 15 -5 18 -10 3 -6 47
-10 97 -10 l90 0 -4 40 c-4 45 -8 43 90 41 64 -2 72 0 72 16 0 11 -6 25 -12
32 -9 9 -9 12 -1 7 6 -3 13 -3 15 1 5 14 145 83 151 76 4 -3 7 -2 7 3 0 5 14
18 31 28 18 11 29 15 26 10 -3 -6 18 -10 49 -11 51 -1 54 0 54 23 0 29 -6 30
-47 4 -18 -10 -35 -15 -38 -11 -4 8 7 16 28 20 4 0 16 10 27 21 11 11 26 20
34 20 8 0 17 7 20 16 3 8 10 12 16 9 5 -3 10 -2 10 3 0 6 24 27 53 48 28 20
46 31 40 22 -10 -12 -10 -15 2 -15 8 0 12 4 9 9 -3 4 10 22 28 39 18 17 48 45
65 62 18 18 33 28 33 24 0 -4 11 4 24 18 14 15 30 24 35 20 6 -3 9 0 6 8 -3 7
11 30 32 50 21 20 54 56 73 78 63 74 90 100 98 95 5 -3 9 1 9 9 0 12 -3 12
-16 2 -8 -6 -2 5 13 26 16 20 32 37 37 37 5 0 8 3 6 8 -1 4 3 7 8 7 5 0 9 -3
8 -7 -2 -5 4 -8 12 -8 9 0 15 9 15 25 0 14 -5 25 -11 25 -5 0 -7 -5 -3 -12 5
-7 3 -8 -5 -4 -9 6 -9 12 2 24 8 10 27 39 42 65 16 29 33 46 41 43 8 -3 11 2
8 18 -2 14 5 32 19 47 12 13 20 24 17 24 -3 0 4 20 14 43 10 23 23 39 29 35 6
-3 7 -2 4 4 -7 12 14 63 26 63 5 0 5 6 1 12 -6 11 -4 11 7 1 7 -7 21 -13 32
-13 16 0 18 7 15 72 -3 77 27 202 43 177 8 -14 1 -39 -11 -39 -4 0 -7 -11 -6
-25 1 -20 6 -25 29 -25 l28 0 -2 100 c-1 55 -5 97 -10 94 -5 -3 -9 0 -9 5 0 6
3 11 8 11 4 0 8 12 8 28 1 15 4 36 7 47 3 11 6 29 6 40 1 15 4 16 13 7 7 -7
22 -12 35 -12 l23 0 0 481 0 481 -40 -4 c-30 -3 -40 0 -42 12 -3 31 -4 35 -11
48 -5 7 -3 12 3 12 6 0 4 7 -5 16 -9 10 -14 25 -12 35 3 10 0 20 -7 22 -8 3
-7 9 3 18 8 8 11 9 7 2 -3 -6 -2 -14 3 -17 5 -3 7 -15 4 -25 -3 -10 0 -22 6
-25 8 -5 11 17 11 68 0 69 -2 76 -19 76 -22 0 -34 -13 -24 -24 11 -11 12 -36
1 -36 -6 0 -8 7 -4 15 3 8 1 15 -5 15 -6 0 -9 7 -5 15 3 8 1 15 -4 15 -8 0
-26 57 -22 73 1 4 -3 7 -9 7 -8 0 -8 4 -1 13 6 6 10 42 11 80 l0 67 -29 0
c-35 0 -34 2 -15 -43 9 -23 11 -38 5 -42 -6 -3 -10 1 -10 9 0 24 -2 30 -17 44
-7 8 -11 18 -8 23 4 5 2 9 -3 9 -4 0 -6 36 -4 80 l4 80 -30 0 c-17 0 -34 -5
-37 -10 -13 -21 -22 1 -18 45 5 47 -8 58 -37 33 -8 -7 -12 -9 -8 -5 3 5 -5 20
-18 34 -13 14 -21 29 -19 33 3 4 -2 11 -11 14 -8 3 -13 10 -9 15 3 6 -4 15
-15 21 -11 6 -18 15 -15 19 3 5 -2 12 -10 15 -8 3 -15 9 -14 13 1 4 0 13 -1
18 -1 6 -1 25 0 43 1 29 -1 32 -26 32 l-27 0 22 -24 c14 -15 19 -26 12 -31
-10 -6 -15 0 -12 17 0 3 -16 18 -35 33 -26 20 -33 30 -25 38 19 19 13 47 -10
47 -19 0 -19 -1 -5 -16 26 -26 18 -27 -13 -2 -17 13 -33 31 -36 41 -4 9 -12
14 -18 11 -8 -5 -8 -2 1 7 6 7 12 19 12 26 0 16 -26 17 -36 1 -4 -6 -3 -8 4
-4 6 3 13 2 16 -3 4 -5 -2 -8 -11 -7 -10 2 -16 5 -14 7 4 5 -59 74 -68 74 -3
0 -18 12 -33 28 -16 15 -28 25 -28 21 0 -3 -7 -1 -15 6 -16 13 -10 35 6 24 5
-3 6 -10 3 -16 -4 -7 -2 -8 4 -4 7 4 12 16 12 27 0 14 -7 19 -26 19 -17 0 -23
-4 -18 -12 5 -8 0 -7 -11 2 -10 8 -20 13 -23 10 -2 -3 -11 5 -20 18 -13 20
-13 22 2 16 12 -5 16 0 16 20 0 23 -4 26 -37 26 -32 -1 -35 -3 -23 -13 8 -7
16 -19 18 -27 1 -10 -3 -8 -13 5 -9 11 -20 21 -25 21 -6 1 -12 2 -15 3 -3 0
-1 11 6 22 9 17 8 20 -3 13 -22 -14 -36 -13 -42 3 -3 8 -10 11 -16 8 -5 -3
-10 -1 -10 4 0 6 -5 10 -11 8 -6 -1 -14 5 -16 13 -3 9 -1 11 4 5 12 -15 79
-16 92 -2 8 10 -3 13 -54 13 -35 0 -61 -4 -58 -9 3 -5 -4 -3 -16 5 -15 9 -21
23 -21 50 0 38 -1 38 -39 38 -22 0 -43 -5 -47 -12 -4 -6 -3 -9 2 -5 5 3 24 -3
43 -12 21 -11 30 -21 22 -25 -6 -4 -11 -2 -11 4 0 6 -4 8 -10 5 -5 -3 -10 -1
-10 5 0 6 -4 8 -10 5 -5 -3 -10 -1 -10 5 0 6 -4 9 -9 5 -6 -3 -14 3 -20 12 -5
10 -11 16 -13 14 -6 -7 -48 10 -48 20 0 6 -4 7 -10 4 -5 -3 -10 -1 -10 5 0 6
-5 8 -12 4 -7 -4 -8 -3 -4 4 4 6 13 9 21 5 10 -3 15 2 15 16 0 18 -6 21 -41
21 -22 0 -38 -4 -34 -9 3 -5 0 -13 -6 -17 -8 -5 -9 -3 -4 6 6 10 4 12 -9 7 -9
-4 -15 -3 -12 2 3 5 -6 9 -21 9 -15 0 -29 5 -31 11 -2 6 -8 9 -13 5 -5 -3 -9
-1 -9 5 0 6 -7 8 -15 5 -8 -4 -15 -1 -15 4 0 6 11 9 25 6 21 -4 25 -1 25 21 0
26 -1 26 -75 24 -41 -1 -72 -6 -69 -10 3 -5 0 -9 -5 -9 -6 0 -11 4 -11 10 0 5
-6 7 -13 4 -8 -3 -27 1 -43 7 -16 7 -35 11 -41 10 -7 -1 -13 3 -13 9 0 5 6 9
13 8 7 -2 13 9 15 25 l3 27 -105 0 c-68 0 -114 -5 -126 -12 -16 -10 -22 -10
-28 -1 -4 6 -25 11 -47 11 -22 0 -137 2 -255 5 -118 3 -249 2 -290 -3z m-185
-20 c3 -5 -1 -10 -10 -10 -9 0 -13 5 -10 10 3 6 8 10 10 10 2 0 7 -4 10 -10z
m869 -2 c-3 -4 -12 -8 -20 -8 -8 0 -14 4 -14 8 0 4 9 8 19 8 11 0 17 -4 15 -8z
m-924 -10 c0 -4 -6 -8 -14 -8 -8 0 -17 4 -20 8 -2 4 4 8 15 8 10 0 19 -4 19
-8z m974 0 c-3 -4 -12 -8 -20 -8 -8 0 -13 4 -10 8 3 5 12 9 20 9 8 0 13 -4 10
-9z m36 -8 c0 -5 -4 -10 -10 -10 -5 0 -10 5 -10 10 0 6 5 10 10 10 6 0 10 -4
10 -10z m40 -10 c0 -5 -5 -10 -11 -10 -5 0 -7 5 -4 10 3 6 8 10 11 10 2 0 4
-4 4 -10z m-1305 -50 c3 -5 1 -10 -4 -10 -6 0 -11 5 -11 10 0 6 2 10 4 10 3 0
8 -4 11 -10z m1479 -2 c-3 -4 -9 -8 -15 -8 -5 0 -9 4 -9 8 0 5 7 9 15 9 8 0
12 -4 9 -9z m-1509 -8 c3 -5 1 -10 -4 -10 -6 0 -11 5 -11 10 0 6 2 10 4 10 3
0 8 -4 11 -10z m1535 0 c0 -5 -5 -10 -11 -10 -5 0 -7 5 -4 10 3 6 8 10 11 10
2 0 4 -4 4 -10z m1187 -976 c-9 -9 -28 6 -21 18 4 6 10 6 17 -1 6 -6 8 -13 4
-17z m56 -89 c4 -8 1 -17 -5 -21 -7 -4 -8 -3 -4 4 4 7 2 12 -4 12 -6 0 -8 5
-5 10 8 14 12 13 18 -5z m107 -225 c0 -5 -5 -10 -11 -10 -5 0 -7 5 -4 10 3 6
8 10 11 10 2 0 4 -4 4 -10z m126 -397 c-2 -9 -8 -19 -14 -21 -16 -5 -15 25 1
31 6 3 13 6 14 6 1 1 0 -7 -1 -16z m-1 -53 c-2 -27 -15 -38 -15 -13 0 16 8 33
15 33 1 0 1 -9 0 -20z m10 -70 c-2 -27 -15 -38 -15 -13 0 16 8 33 15 33 1 0 1
-9 0 -20z m11 -90 c4 -155 4 -464 -1 -468 -3 -3 -5 88 -5 204 1 115 -2 223 -6
241 -5 28 -1 63 8 63 2 0 4 -18 4 -40z m-1 -509 c0 -16 -3 -27 -7 -24 -5 2 -8
15 -8 29 0 13 3 24 8 24 4 0 7 -13 7 -29z m-10 -85 c0 -13 -3 -22 -7 -19 -5 2
-8 13 -8 24 0 10 3 19 8 19 4 0 7 -11 7 -24z m-9 -65 c0 -11 -4 -17 -8 -15 -4
3 -8 12 -8 20 0 8 4 14 8 14 4 0 8 -9 8 -19z m-4484 -29 c3 -10 0 -19 -6 -19
-7 0 -12 9 -12 19 0 10 3 18 7 18 4 0 9 -8 11 -18z m11 -53 c4 -16 3 -18 -9
-8 -7 6 -11 15 -8 20 8 13 11 11 17 -12z m7 -39 c0 -5 -2 -10 -4 -10 -3 0 -8
5 -11 10 -3 6 -1 10 4 10 6 0 11 -4 11 -10z m4417 -95 c0 -8 -4 -12 -9 -9 -4
3 -8 9 -8 15 0 5 4 9 8 9 5 0 9 -7 9 -15z m-12 -25 c3 -5 1 -10 -4 -10 -6 0
-11 5 -11 10 0 6 2 10 4 10 3 0 8 -4 11 -10z m-4345 -89 c0 -6 -4 -12 -8 -15
-5 -3 -9 1 -9 9 0 8 4 15 9 15 4 0 8 -4 8 -9z m4280 -121 c0 -5 -2 -10 -4 -10
-3 0 -8 5 -11 10 -3 6 -1 10 4 10 6 0 11 -4 11 -10z m-18 -42 c-15 -15 -24 -6
-16 16 5 12 10 14 17 7 8 -8 8 -14 -1 -23z m-4172 -62 c0 -3 -4 -8 -10 -11 -5
-3 -10 -1 -10 4 0 6 5 11 10 11 6 0 10 -2 10 -4z m887 -1002 c-9 -9 -28 6 -21
18 4 6 10 6 17 -1 6 -6 8 -13 4 -17z m107 -55 c-6 -11 -24 -2 -24 11 0 5 7 7
15 4 8 -4 12 -10 9 -15z m46 -19 c0 -5 -5 -10 -11 -10 -5 0 -7 5 -4 10 3 6 8
10 11 10 2 0 4 -4 4 -10z m1930 -59 c0 -12 -20 -25 -27 -18 -7 7 6 27 18 27 5
0 9 -4 9 -9z m-1769 -15 c5 3 9 0 9 -6 0 -16 -23 -7 -27 11 -2 9 -1 10 3 1 3
-6 10 -10 15 -6z m1724 -6 c3 -5 1 -10 -4 -10 -6 0 -11 5 -11 10 0 6 2 10 4
10 3 0 8 -4 11 -10z m-105 -40 c0 -5 -2 -10 -4 -10 -3 0 -8 5 -11 10 -3 6 -1
10 4 10 6 0 11 -4 11 -10z m-1470 -10 c0 -5 -2 -10 -4 -10 -3 0 -8 5 -11 10
-3 6 -1 10 4 10 6 0 11 -4 11 -10z m1440 0 c0 -5 -2 -10 -4 -10 -3 0 -8 5 -11
10 -3 6 -1 10 4 10 6 0 11 -4 11 -10z m-1410 -10 c0 -5 -2 -10 -4 -10 -3 0 -8
5 -11 10 -3 6 -1 10 4 10 6 0 11 -4 11 -10z m1385 0 c3 -5 2 -10 -4 -10 -5 0
-13 5 -16 10 -3 6 -2 10 4 10 5 0 13 -4 16 -10z m-1345 -10 c0 -5 7 -7 15 -4
8 4 15 2 15 -4 0 -9 -20 -9 -40 -2 -3 1 -9 2 -13 1 -5 -1 -6 3 -2 9 8 13 25
13 25 0z m1305 0 c3 -5 2 -10 -4 -10 -5 0 -13 5 -16 10 -3 6 -2 10 4 10 5 0
13 -4 16 -10z m-31 -8 c3 -5 -1 -9 -9 -9 -8 0 -15 4 -15 9 0 4 4 8 9 8 6 0 12
-4 15 -8z m-1074 -42 c0 -5 -4 -10 -9 -10 -6 0 -13 5 -16 10 -3 6 1 10 9 10 9
0 16 -4 16 -10z m55 -10 c-3 -5 -12 -7 -20 -3 -21 7 -19 13 6 13 11 0 18 -4
14 -10z m805 6 c0 -2 -7 -6 -15 -10 -8 -3 -15 -1 -15 4 0 6 7 10 15 10 8 0 15
-2 15 -4z m-734 -13 c-10 -10 -46 -11 -40 -1 3 4 15 8 26 8 12 0 18 -3 14 -7z
m677 0 c3 -5 -6 -8 -19 -8 -13 0 -24 3 -24 8 0 4 9 7 19 7 11 0 22 -3 24 -7z
m-338 -13 c109 0 196 -2 193 -5 -3 -3 -101 -5 -217 -4 -283 2 -290 3 -284 13
3 4 29 5 57 1 28 -3 141 -6 251 -5z m258 3 c3 -5 -8 -8 -24 -8 -16 0 -29 3
-29 8 0 4 11 7 24 7 14 0 27 -3 29 -7z"/>
<path d="M1235 4430 c-4 -6 -10 -8 -15 -5 -5 3 -11 1 -14 -4 -8 -13 22 -7 36
7 7 7 9 12 6 12 -4 0 -10 -5 -13 -10z"/>
<path d="M3790 4396 c0 -2 7 -6 15 -10 8 -3 15 -1 15 4 0 6 -7 10 -15 10 -8 0
-15 -2 -15 -4z"/>
<path d="M4050 4196 c0 -2 7 -9 15 -16 12 -10 15 -10 15 4 0 9 -7 16 -15 16
-8 0 -15 -2 -15 -4z"/>
<path d="M640 3871 c0 -11 26 -22 34 -14 3 3 3 10 0 14 -7 12 -34 11 -34 0z"/>
<path d="M4334 3868 c-4 -6 -3 -8 3 -5 10 6 50 -52 45 -66 -1 -5 2 -6 8 -2 5
3 10 24 10 46 0 37 -2 39 -29 39 -17 0 -33 -5 -37 -12z"/>
<path d="M484 3629 c-3 -6 0 -15 7 -20 11 -7 11 -9 1 -9 -7 0 -10 -5 -6 -11 4
-8 11 -3 20 12 12 24 10 39 -6 39 -5 0 -12 -5 -16 -11z"/>
<path d="M403 3448 c0 -18 2 -25 4 -15 3 9 9 15 14 12 11 -7 11 -3 3 19 -10
27 -21 18 -21 -16z"/>
<path d="M320 3270 c0 -29 5 -50 11 -50 5 0 8 4 5 9 -3 5 1 25 9 45 19 45 19
46 -5 46 -17 0 -20 -7 -20 -50z"/>
<path d="M260 3029 c0 -5 5 -7 10 -4 6 3 10 8 10 11 0 2 -4 4 -10 4 -5 0 -10
-5 -10 -11z"/>
<path d="M4550 1459 c0 -5 -4 -7 -10 -4 -6 4 -7 -1 -3 -11 4 -10 2 -15 -3 -11
-6 3 -11 -3 -11 -14 -1 -13 5 -19 18 -19 15 0 19 7 19 35 0 19 -2 35 -5 35 -3
0 -5 -5 -5 -11z"/>
<path d="M4220 951 c-7 -15 -7 -21 0 -21 12 0 25 28 17 36 -3 3 -10 -4 -17
-15z"/>
<path d="M800 942 c0 -17 5 -21 25 -20 30 3 29 2 8 19 -14 12 -16 12 -9 -1 4
-8 0 -6 -8 4 -16 19 -16 19 -16 -2z"/>
<path d="M4145 890 c3 -5 8 -10 11 -10 2 0 4 5 4 10 0 6 -5 10 -11 10 -5 0 -7
-4 -4 -10z"/>
<path d="M882 865 c-1 -21 2 -24 23 -23 l24 2 -21 23 c-12 13 -22 23 -23 23 0
0 -2 -11 -3 -25z"/>
<path d="M4125 870 c-3 -5 -1 -10 4 -10 6 0 11 5 11 10 0 6 -2 10 -4 10 -3 0
-8 -4 -11 -10z"/>
<path d="M3829 643 c-1 -5 -1 -11 0 -15 1 -8 -15 -12 -31 -9 -5 0 -8 -3 -8 -9
0 -5 11 -10 25 -10 20 0 24 4 23 25 -2 24 -7 33 -9 18z"/>
<path d="M3580 480 c0 -6 -4 -9 -9 -6 -5 3 -12 -1 -15 -10 -4 -9 -13 -14 -22
-10 -8 3 -12 2 -9 -4 3 -6 22 -10 41 -10 27 0 34 4 34 19 0 11 -4 23 -10 26
-5 3 -10 1 -10 -5z"/>
</g>
</svg>
