<svg id="Layer_1" data-name="Layer 1" xmlns="http://www.w3.org/2000/svg" xmlns:xlink="http://www.w3.org/1999/xlink" viewBox="0 0 6075.79 1504.16"><defs><style>.cls-1{fill:none;}.cls-2{isolation:isolate;}.cls-3{clip-path:url(#clip-path);}.cls-4{fill:#8f269b;}.cls-5{fill:#9327a0;}.cls-6{clip-path:url(#clip-path-2);}.cls-7{fill:#701e7a;}.cls-8{fill:#792083;}.cls-9{fill:#9829a6;}.cls-10{fill:#6c1d76;}.cls-11{clip-path:url(#clip-path-3);}.cls-12{fill:#8a2596;}.cls-13{fill:#782083;}.cls-14{clip-path:url(#clip-path-4);}.cls-15{fill:#751f7f;}.cls-16{fill:#792084;}.cls-17{fill:#7d2288;}.cls-18{fill:#82238d;}.cls-19{fill:#862492;}.cls-20{fill:#ba32ca;}.cls-21{fill:#006345;}.cls-22{fill:#00c08e;}.cls-23{fill:#009567;}.cls-24{fill:#00895f;}.cls-25{fill:#009467;}.cls-26{clip-path:url(#clip-path-5);}.cls-27{fill:#008f63;}.cls-28{fill:#008b60;}.cls-29{fill:#00875d;}.cls-30{fill:#00835a;}.cls-31{fill:#007f58;}.cls-32{clip-path:url(#clip-path-6);}.cls-33{fill:#008562;}.cls-34{clip-path:url(#clip-path-7);}.cls-35{fill:#008a66;}.cls-36{fill:#00b183;}.cls-37{fill:#00a06f;}.cls-38{fill:#00ce99;}.cls-39{clip-path:url(#clip-path-8);}.cls-40{fill:#00a379;}.cls-41{fill:#009e75;}.cls-42{fill:#009971;}.cls-43{fill:#00946e;}.cls-44{fill:#008f6a;}.cls-45{clip-path:url(#clip-path-9);}.cls-46{fill:#007b55;}.cls-47{fill:#007752;}.cls-48{fill:#00734f;}.cls-49{fill:#006f4d;}.cls-50{fill:#006b4a;}.cls-51{fill:#006747;}.cls-52{fill:#1a1a1a;}</style><clipPath id="clip-path"><path class="cls-1" d="M1121.82,883.42l-16.52-12.94c14.84-.26,31-.54,46.34-.54,13.9,0,27.06.23,37.79.92L1206,883.8c-10.73-.69-23.89-.92-37.79-.92C1152.86,882.88,1136.66,883.16,1121.82,883.42Z"/></clipPath><clipPath id="clip-path-2"><path class="cls-1" d="M1206,883.8l-16.52-12.94c-11.08-22-28.06-59.51-41.41-88.83l16.52,13C1177.88,824.29,1194.87,861.84,1206,883.8Z"/></clipPath><clipPath id="clip-path-3"><path class="cls-1" d="M1146.1,419l16.52,12.94c-13.81-10.82-30.67-17.33-51.53-17.32l-16.52-12.94C1115.43,401.67,1132.29,408.18,1146.1,419Z"/></clipPath><clipPath id="clip-path-4"><path class="cls-1" d="M1011,485.6l-16.52-12.94c22.54-36.4,54.07-70.18,100.1-71l16.52,12.94C1065.06,415.42,1033.52,449.2,1011,485.6Z"/></clipPath><clipPath id="clip-path-5"><path class="cls-1" d="M411.7,1024.87l-16.52-12.94c-14.06-11-26.14-27.48-36.42-49.52l16.52,12.94C385.56,997.39,397.64,1013.85,411.7,1024.87Z"/></clipPath><clipPath id="clip-path-6"><path class="cls-1" d="M462.83,1041.75c-19.74-.07-36.72-5.76-51.39-17.24l-16.51-12.94c14.66,11.48,31.64,17.17,51.38,17.24Z"/></clipPath><clipPath id="clip-path-7"><path class="cls-1" d="M462.83,1041.75l0,0-.09-.07-.09-.07-.1-.08-.09-.07-.1-.08-.09-.07-.09-.07-.95-.74-1.9-1.49-2-1.57-2.05-1.6-2.07-1.63-2.05-1.6-2-1.57-1.9-1.49-.91-.71h.4c17.85-.31,34.9-5.83,50.78-16.44L514,1025.31c-15.88,10.61-32.93,16.13-50.78,16.44Z"/></clipPath><clipPath id="clip-path-8"><path class="cls-1" d="M514,1025.31l-1.13-.88-15.39-12.06q3.66-2.45,7.23-5.25c14.42-11.32,28-27,41.59-48l16.52,12.94c-13.57,21-27.18,36.66-41.59,48C518.86,1021.93,516.44,1023.68,514,1025.31Z"/></clipPath><clipPath id="clip-path-9"><path class="cls-1" d="M410.81,1025.29l-16.52-12.94c14.91,11.68,32.21,17.44,52.35,17.43,20.81-.36,40.53-7.73,58.6-21.92,14.52-11.39,28.21-27.16,41.85-48.25l16.52,12.95c-13.65,21.08-27.33,36.86-41.85,48.24-18.07,14.19-37.79,21.56-58.6,21.92C443,1042.73,425.72,1037,410.81,1025.29Z"/></clipPath></defs><path d="M1478.07,586c17.64-2.76,51.25-2.76,66.68,0l93.12,227,92.57-227c16.53-2.76,48.49-2.76,65,0L1675.89,868.1c-19.28,2.76-58.41,2.76-77.69,0Z"/><path d="M2075.94,829h-2.76c-13.22,32.51-57.31,45.74-116.82,45.74-68.32,0-120.12-22-120.12-81.56,0-74.93,55.1-90.91,132.25-90.91a849.19,849.19,0,0,1,104.14,6.06V679.65c0-29.75-24.25-46.28-103-46.28-30.86,0-67.23,2.2-109.66,7.71-2.75-16.53-2.75-37.47,0-53.45,46.29-7.16,87.62-9.36,128.94-9.36,97,0,147.68,24.79,147.68,86V870.86c-14.88,2.75-40.78,2.75-55.66,0Zm-3.31-76c-28.65-2.75-60.61-6.06-85.41-6.06-55.65,0-87.06,5.51-87.06,39.12,0,32,36.92,35.82,79.9,35.82,51.79,0,74.94-9.92,92.57-36.37Z"/><path d="M2230.22,472.47c16-2.76,47.39-2.76,63.92,0V868.1c-16.53,2.76-47.94,2.76-63.92,0Z"/><path d="M2462.19,534.18c-16.53,2.21-50.69,2.21-67.78,0l-1.1-54.55c17.08-2.75,52.9-2.75,70.53,0ZM2396.62,586c16-2.76,47.39-2.76,63.92,0V868.1c-16.53,2.76-47.94,2.76-63.92,0Z"/><path d="M2797.21,829h-2.76c-13.22,34.17-57.86,45.74-118.47,45.74-70,0-121.78-22-121.78-82.11V660.92c0-60.61,51.8-82.65,121.78-82.65,60.61,0,105.25,12.12,118.47,46.28h2.76l-3.31-46.28V471.92c16-2.21,47.39-2.21,63.92,0V869.76c-14.88,2.2-40.78,2.2-55.65,0Zm-3.31-152.63c-16.53-33.06-35.27-43-93.12-43-46.84,0-82.66,6.06-82.66,54.55v77.14c0,47.39,35.82,54,82.66,54,57.85,0,76.59-9.92,93.12-43Z"/><path d="M3178.51,829h-2.76c-13.22,32.51-57.3,45.74-116.81,45.74-68.33,0-120.13-22-120.13-81.56,0-74.93,55.11-90.91,132.25-90.91a849.08,849.08,0,0,1,104.14,6.06V679.65c0-29.75-24.24-46.28-103-46.28-30.86,0-67.22,2.2-109.65,7.71-2.76-16.53-2.76-37.47,0-53.45,46.28-7.16,87.61-9.36,128.94-9.36,97,0,147.67,24.79,147.67,86V870.86c-14.88,2.75-40.77,2.75-55.65,0Zm-3.31-76c-28.65-2.75-60.61-6.06-85.41-6.06-55.65,0-87.06,5.51-87.06,39.12,0,32,36.92,35.82,79.9,35.82,51.8,0,74.94-9.92,92.57-36.37Z"/><path d="M3421.51,639.43V765.06c0,50.7,31.41,54.55,60.06,54.55a338.31,338.31,0,0,0,49-3.3c2.2,15.43,2.2,38,0,52.9-21.49,3.85-42.43,5.51-67.23,5.51-54.55,0-105.79-19.29-105.79-89.27v-146h-56.76a191.28,191.28,0,0,1,0-50.14l56.76-2.76V512.69c16.53-2.2,47.94-2.2,63.92,0V586h109.1c2.2,15.43,2.2,38,0,53.45Z"/><path d="M3894.83,786c0,65.57-60.06,88.72-150.43,88.72S3594,851.57,3594,786V668.08c0-67.77,60.06-89.81,150.43-89.81s150.43,22,150.43,89.81Zm-63.92-105.8c0-41.32-39.67-46.83-86.51-46.83s-86.51,5.51-86.51,46.83v92.58c0,40.77,39.67,46.28,86.51,46.28s86.51-5.51,86.51-46.28Z"/><path d="M3988.5,583.78a311.54,311.54,0,0,1,55.65,0l4.41,45.18h3.31c11.57-35.82,57.3-50.69,121.22-50.69,2.21,15.42,2.21,41.32,0,56.2-79.34,0-101.38,12.67-120.67,52.35V868.1c-16.53,2.76-47.94,2.76-63.92,0Z"/><path d="M4477.81,801.43c0,52.9-51.25,73.29-132.25,73.29-36.36,0-80.45-2.21-119-8.27a177.76,177.76,0,0,1,0-54,905,905,0,0,0,110.21,7.16c39.12,0,77.14-2.2,77.14-25.89V783.25c0-20.94-18.73-23.7-55.65-30.31L4303.13,743c-49-8.81-78.79-27.55-78.79-66.12v-27c0-51.25,53.45-71.63,137.75-71.63A695.59,695.59,0,0,1,4474,587.08a173.54,173.54,0,0,1,0,53.45c-44.08-5.51-71.63-7.71-104.69-7.71-43.53,0-81,2.2-81,25.34v11c0,18.19,22.59,23.15,56.2,29.21l53.45,9.37c55.1,9.91,79.9,25.89,79.9,70.53Z"/><path d="M4541.17,784.35c17.08-2.76,47.94-2.76,64.47,0V868.1c-16.53,2.76-47.39,2.76-64.47,0Z"/><path d="M4905.4,829h-2.76c-13.22,32.51-57.31,45.74-116.82,45.74-68.32,0-120.12-22-120.12-81.56,0-74.93,55.1-90.91,132.25-90.91a849.19,849.19,0,0,1,104.14,6.06V679.65c0-29.75-24.24-46.28-103-46.28-30.86,0-67.23,2.2-109.66,7.71-2.75-16.53-2.75-37.47,0-53.45,46.29-7.16,87.62-9.36,128.94-9.36,97,0,147.68,24.79,147.68,86V870.86c-14.88,2.75-40.78,2.75-55.65,0Zm-3.31-76c-28.65-2.75-60.61-6.06-85.41-6.06-55.65,0-87.06,5.51-87.06,39.12,0,32,36.92,35.82,79.9,35.82,51.79,0,74.94-9.92,92.57-36.37Z"/><path d="M5059.68,583.22c14.88-2.75,40.78-2.75,55.65,0l4.41,41.33h3.31c12.67-34.16,57.85-46.28,117.92-46.28,70,0,122.32,22,122.32,82.65V792.61c0,60.07-52.34,82.11-122.32,82.11-60.07,0-105.25-11.57-117.92-45.74h-3.31l3.86,45.74V986.57c-16.53,2.21-47.94,2.21-63.92,0Zm239.7,104.7c0-48.49-36.37-54.55-83.21-54.55-57.86,0-76.59,9.92-92.57,43v99.73c16,33.06,34.71,43,92.57,43,46.84,0,83.21-6.61,83.21-54Z"/><path d="M5457,583.22c14.88-2.75,40.78-2.75,55.66,0l4.4,41.33h3.31c12.67-34.16,57.86-46.28,117.92-46.28,70,0,122.33,22,122.33,82.65V792.61c0,60.07-52.35,82.11-122.33,82.11-60.06,0-105.25-11.57-117.92-45.74H5517l3.86,45.74V986.57c-16.53,2.21-47.94,2.21-63.92,0Zm239.7,104.7c0-48.49-36.37-54.55-83.21-54.55-57.85,0-76.59,9.92-92.57,43v99.73c16,33.06,34.72,43,92.57,43,46.84,0,83.21-6.61,83.21-54Z"/><g class="cls-2"><g class="cls-2"><g class="cls-3"><g class="cls-2"><path class="cls-4" d="M1121.82,883.42l-16.52-12.94c14.84-.26,31-.54,46.34-.54,4.8,0,9.51,0,14.06.09L1182.22,883c-4.56-.06-9.26-.09-14.06-.09-15.3,0-31.5.28-46.34.54"/><path class="cls-5" d="M1182.22,883,1165.7,870c8.64.12,16.7.38,23.73.83L1206,883.8c-7-.45-15.1-.7-23.73-.83"/></g></g></g><g class="cls-2"><g class="cls-6"><g class="cls-2"><path class="cls-7" d="M1206,883.8l-16.52-12.94c-11.08-22-28.06-59.51-41.41-88.83l16.52,13c13.34,29.31,30.33,66.86,41.41,88.82"/></g></g></g><polygon class="cls-8" points="902.38 1046.02 885.86 1033.08 986.33 872.55 1002.84 885.49 902.38 1046.02"/><polygon class="cls-9" points="1002.84 885.49 986.33 872.55 1105.3 870.48 1121.82 883.42 1002.84 885.49"/><polygon class="cls-10" points="1164.54 794.98 1148.02 782.03 1075.34 619.89 1091.86 632.83 1164.54 794.98"/><g class="cls-2"><g class="cls-11"><g class="cls-2"><path class="cls-4" d="M1111.09,414.62l-16.52-12.94h1.78l16.52,12.94h-1.78"/><path class="cls-5" d="M1112.87,414.63l-16.52-12.94a86.51,86.51,0,0,1,21.23,2.92l16.52,12.94a87.48,87.48,0,0,0-21.23-2.92"/><path class="cls-4" d="M1134.1,417.55l-16.52-12.94a78.22,78.22,0,0,1,20.62,8.89l16.52,12.94a78.22,78.22,0,0,0-20.62-8.89"/><path class="cls-12" d="M1154.72,426.44,1138.2,413.5a84.41,84.41,0,0,1,7.9,5.5l16.52,12.94a84.41,84.41,0,0,0-7.9-5.5"/></g></g></g><polygon class="cls-13" points="665.14 1050.14 648.63 1037.2 994.47 472.66 1010.99 485.6 665.14 1050.14"/><g class="cls-2"><g class="cls-14"><g class="cls-2"><path class="cls-15" d="M1011,485.6l-16.52-12.94A238,238,0,0,1,1014,445.31l16.51,12.94A237.91,237.91,0,0,0,1011,485.6"/><path class="cls-16" d="M1030.5,458.25,1014,445.31a162.83,162.83,0,0,1,13.63-14.49l16.51,12.94a165.81,165.81,0,0,0-13.63,14.49"/><path class="cls-17" d="M1044.13,443.76l-16.51-12.94a128.42,128.42,0,0,1,11.39-9.54l16.52,12.94a131.78,131.78,0,0,0-11.4,9.54"/><path class="cls-18" d="M1055.53,434.22,1039,421.28a109.72,109.72,0,0,1,10.68-7l16.52,12.94a109.72,109.72,0,0,0-10.68,7"/><path class="cls-19" d="M1066.21,427.2l-16.52-12.94a98.93,98.93,0,0,1,11.06-5.49l16.52,12.94a98.93,98.93,0,0,0-11.06,5.49"/><path class="cls-12" d="M1077.27,421.71l-16.52-12.94a91.25,91.25,0,0,1,13.11-4.38l16.52,12.95a91.21,91.21,0,0,0-13.11,4.37"/><path class="cls-4" d="M1090.38,417.34l-16.52-12.95a91.35,91.35,0,0,1,20.71-2.71l16.52,12.94a90.71,90.71,0,0,0-20.71,2.72"/></g></g></g><path class="cls-20" d="M1111.09,414.62c44.57,0,70.86,29.71,88.26,67.71l254,554.13L902.38,1046l100.46-160.53,119-2.07c14.84-.26,31-.54,46.34-.54,13.9,0,27.06.23,37.79.92-11.08-22-28.07-59.51-41.41-88.82l-72.68-162.15-253.22,414.3-173.5,3L1011,485.6C1033.52,449.2,1065.06,415.42,1111.09,414.62Z"/></g><g class="cls-2"><polygon class="cls-21" points="282.58 414.47 299.1 427.41 120.3 430.52 103.79 417.57 282.58 414.47"/><polygon class="cls-22" points="282.57 414.47 299.09 427.41 481.75 827.61 465.23 814.67 282.57 414.47"/><polygon class="cls-23" points="283.2 413.49 299.72 426.43 482.26 826.38 465.74 813.44 283.2 413.49"/><polygon class="cls-24" points="718.64 406.9 735.16 419.84 482.09 828.37 465.57 815.43 718.64 406.9"/><polygon class="cls-25" points="103.79 417.57 120.3 430.52 375.28 975.36 358.76 962.41 103.79 417.57"/><g class="cls-2"><g class="cls-26"><g class="cls-2"><path class="cls-27" d="M358.76,962.41l16.52,12.94q3.27,7,6.8,13.3l-16.52-12.94q-3.53-6.27-6.8-13.3"/><path class="cls-28" d="M365.56,975.71l16.52,12.94a150.62,150.62,0,0,0,10.16,15.82l-16.52-12.94a151.66,151.66,0,0,1-10.16-15.82"/><path class="cls-29" d="M375.72,991.53l16.52,12.94a118.63,118.63,0,0,0,8.08,9.83l-16.52-12.94a118.63,118.63,0,0,1-8.08-9.83"/><path class="cls-30" d="M383.8,1001.36l16.52,12.94q3.46,3.75,7.1,7l-16.52-12.95a99.24,99.24,0,0,1-7.1-7"/><path class="cls-31" d="M390.9,1008.35l16.52,12.95c1.41,1.24,2.83,2.44,4.28,3.57l-16.52-12.94c-1.44-1.13-2.87-2.33-4.28-3.58"/></g></g></g><polygon class="cls-21" points="890.35 403.92 906.87 416.86 735.16 419.84 718.64 406.9 890.35 403.92"/><g class="cls-2"><g class="cls-32"><g class="cls-2"><path class="cls-33" d="M490,1017l16.52,12.94a91.41,91.41,0,0,1-43.29,11.86c-19.92,0-37-5.69-51.81-17.26l-16.52-12.94c14.77,11.57,31.89,17.27,51.81,17.26A91.41,91.41,0,0,0,490,1017"/></g></g></g><g class="cls-2"><g class="cls-34"><g class="cls-2"><path class="cls-35" d="M501.26,1009.74l16.52,12.94a110.09,110.09,0,0,1-11.26,7.21L490,1017a111.83,111.83,0,0,0,11.26-7.21"/><path class="cls-33" d="M490,1017l16.52,12.94a91.41,91.41,0,0,1-43.29,11.86c-19.92,0-37-5.69-51.81-17.26l-16.52-12.94c14.77,11.57,31.89,17.27,51.81,17.26A91.41,91.41,0,0,0,490,1017"/></g></g></g><polygon class="cls-36" points="890.35 403.92 906.87 416.86 562.83 972.09 546.31 959.14 890.35 403.92"/><polygon class="cls-24" points="892.04 402.92 908.56 415.86 563.61 972.56 547.09 959.62 892.04 402.92"/><path class="cls-37" d="M718.17,405.94l173.87-3L547.09,959.61c-13.64,21.09-27.33,36.86-41.85,48.25-18.07,14.19-37.79,21.56-58.6,21.92-39.27,0-67.75-21.88-88.73-66.89L102.26,416.64l181-3.15,182.53,400ZM546.31,959.15l344-555.23-171.71,3L465.57,815.43l-183-401-178.79,3.11,255,544.83c20.83,44.67,49.06,66.42,86.25,66.42,22.3-.37,41.82-7.67,59.71-21.71,14.42-11.31,28-27,41.59-48"/><path class="cls-38" d="M890.35,403.92l-344,555.22c-13.57,21-27.17,36.66-41.59,48-17.9,14-37.42,21.34-58,21.69-38.89,0-67.12-21.73-87.95-66.4l-255-544.84,178.79-3.1,182.66,400.2L718.64,406.9Z"/><g class="cls-2"><g class="cls-39"><g class="cls-2"><path class="cls-40" d="M546.31,959.14l16.52,12.94q-2,3.17-4.08,6.15l-16.52-12.94q2-3,4.08-6.15"/><path class="cls-41" d="M542.23,965.29l16.52,12.94Q553,986.72,547.13,994L530.61,981q5.83-7.26,11.62-15.74"/><path class="cls-42" d="M530.61,981,547.13,994q-5,6.24-10.1,11.6l-16.52-12.94q5.09-5.37,10.1-11.6"/><path class="cls-43" d="M520.51,992.63,537,1005.57q-4.72,5-9.55,9.27L511,1001.9q4.83-4.27,9.55-9.27"/><path class="cls-44" d="M511,1001.9l16.52,12.94q-3.09,2.76-6.24,5.22c-1.15.9-2.3,1.78-3.46,2.62l-16.52-12.94q1.74-1.28,3.46-2.62,3.15-2.46,6.24-5.22"/><path class="cls-35" d="M501.26,1009.74l16.52,12.94a110.09,110.09,0,0,1-11.26,7.21L490,1017a111.83,111.83,0,0,0,11.26-7.21"/></g></g></g><g class="cls-2"><g class="cls-45"><g class="cls-2"><path class="cls-31" d="M547.09,959.61l16.52,12.95c-1.36,2.1-2.73,4.15-4.09,6.15L543,965.77q2.06-3,4.09-6.16"/><path class="cls-46" d="M543,965.77l16.52,12.94q-5.82,8.53-11.68,15.82l-16.52-12.94q5.88-7.3,11.68-15.82"/><path class="cls-47" d="M531.32,981.59l16.52,12.94q-5,6.27-10.15,11.67l-16.52-13q5.12-5.4,10.15-11.66"/><path class="cls-48" d="M521.17,993.25l16.52,13q-4.76,5-9.6,9.31l-16.52-12.94q4.84-4.3,9.6-9.32"/><path class="cls-49" d="M511.57,1002.57l16.52,12.94c-2.09,1.86-4.2,3.63-6.33,5.29q-1.75,1.38-3.53,2.67l-16.52-12.94c1.19-.86,2.36-1.75,3.53-2.67q3.19-2.5,6.33-5.29"/><path class="cls-50" d="M501.71,1010.53l16.52,12.94a110.18,110.18,0,0,1-11.35,7.27l-16.52-12.94a110.18,110.18,0,0,0,11.35-7.27"/><path class="cls-51" d="M490.36,1017.8l16.52,12.94a92.22,92.22,0,0,1-43.72,12c-20.14,0-37.44-5.75-52.35-17.43l-16.52-12.94c14.91,11.68,32.21,17.44,52.35,17.43a92.22,92.22,0,0,0,43.72-12"/></g></g></g></g><path class="cls-52" d="M4177.86,1211.4c0,23.58-20.94,32.4-49.15,32.4-24.91,0-43.43-4.85-48.27-18.08h-1.11l-1.76,16.31a37.62,37.62,0,0,1-14.11,0v-159.8a56.36,56.36,0,0,1,17.2,0v44.31l-1.33,18.07h1.11c4.84-13.22,23.36-18.07,48.27-18.07,28.21,0,49.15,8.59,49.15,32.4Zm-17.19-46.29c0-21.16-17-23.58-37.7-23.58-26.89,0-35,4.84-42.31,19.39v48.27c7.27,14.33,15.42,19.18,42.31,19.18,20.72,0,37.7-2.87,37.7-23.14Z"/><path class="cls-52" d="M4314.73,1238.73l1.32-17H4315c-4.85,13.22-23.36,18.07-47.83,18.07-27.77,0-49.15-8.82-49.15-32.4v-78a56.3,56.3,0,0,1,17.19,0v71.86c0,20.28,17,23.14,37.47,23.14,26.89,0,34.83-5.07,42.1-19.17V1129.4a56.29,56.29,0,0,1,17.19,0v122.33c0,26.23-20.28,37.91-59.07,37.91a318.94,318.94,0,0,1-48.05-3.52,40.57,40.57,0,0,1,1.54-14.55,336.39,336.39,0,0,0,45.85,3.08c24.91,0,42.54-4.18,42.54-22.48Z"/><path class="cls-52" d="M4554.09,1205.23c0,25.56-20.28,35.92-51.36,35.92h-67.22V1094.36h61.71c32,0,52.46,10.14,52.46,34.82v7.94c0,15-7.94,23.8-21.6,28,16.31,4.19,26,14.11,26,32.4Zm-21.82-73.18c0-19.18-16.09-22.48-36.81-22.48h-42.32v49.59h42.1c20.28,0,37-2.65,37-20.94Zm4.41,64.8c0-21.16-16.54-24-36.15-24h-47.39v52.9h47.61c19.83,0,35.93-4,35.93-23.14Z"/><path class="cls-52" d="M4593.32,1082.45a45.18,45.18,0,0,1,17.19,0v158.7a56.3,56.3,0,0,1-17.19,0Z"/><path class="cls-52" d="M4766.78,1210.07c0,24.69-22.7,33.73-56.87,33.73s-56.86-9-56.86-33.73v-49.59c0-25.35,22.7-33.94,56.86-33.94s56.87,8.59,56.87,33.94Zm-17.19-46.5c0-19.4-18.08-22-39.68-22-21.38,0-39.67,2.64-39.67,22v43.2c0,19,18.29,21.6,39.67,21.6,21.6,0,39.68-2.65,39.68-21.6Z"/><path class="cls-52" d="M4804.69,1159.82c0-25.13,20.93-33.72,54-33.72a262.41,262.41,0,0,1,44.52,3.3,40.43,40.43,0,0,1,0,14.55c-14.55-2-24.91-2.64-42.32-2.64-20.28,0-39,2.42-39,21.82v43c0,19.39,18.73,21.82,39,21.82a247.46,247.46,0,0,0,42.32-3.31,40.42,40.42,0,0,1,0,14.55,243.34,243.34,0,0,1-44.52,4.19c-33.29,0-54-9-54-33.73Z"/><path class="cls-52" d="M4983,1184.73l-26.67,1.76v54.66a56.3,56.3,0,0,1-17.19,0v-158.7a45.18,45.18,0,0,1,17.19,0v89.27l29.54-2,42.32-40.56c4-.88,15.65-.88,19.62,0l-49.6,48.49,52,63.48c-4.41.88-15.43.88-19.62,0Z"/><path class="cls-52" d="M5136.17,1241.15V1094.36a59.24,59.24,0,0,1,17.64,0v131.8h84.85a34.16,34.16,0,0,1,0,15Z"/><path class="cls-52" d="M5378.62,1210.07c0,24.69-22.7,33.73-56.87,33.73s-56.86-9-56.86-33.73v-49.59c0-25.35,22.7-33.94,56.86-33.94s56.87,8.59,56.87,33.94Zm-17.19-46.5c0-19.4-18.07-22-39.68-22-21.38,0-39.67,2.64-39.67,22v43.2c0,19,18.29,21.6,39.67,21.6,21.61,0,39.68-2.65,39.68-21.6Z"/><path class="cls-52" d="M5513.73,1238.73l1.32-17h-.88c-5.07,13.22-23.58,18.07-48.27,18.07-28.43,0-49.37-8.82-49.37-32.4v-48.49c0-23.81,20.94-32.4,49.37-32.4,24.69,0,43.2,4.85,48.27,18.07h.88l1.76-15.87a38,38,0,0,1,14.11,0v123c0,26.23-20.28,37.91-59.07,37.91a320.5,320.5,0,0,1-48.49-3.52c-.22-4,.22-10.8,1.76-14.55a336.39,336.39,0,0,0,45.85,3.08c24.91,0,42.76-4.18,42.76-22.48Zm0-77.81c-7.5-14.55-15.65-19.39-42.32-19.39-20.72,0-37.69,2.42-37.69,23.58v36.15c0,20.28,17,23.14,37.69,23.14,26.67,0,34.82-5.07,42.32-19.17Z"/><path class="cls-52" d="M5596.16,1104.5a66.77,66.77,0,0,1-18.73,0l-.45-17.2a74.88,74.88,0,0,1,19.84,0Zm-17.85,24.9a45.18,45.18,0,0,1,17.19,0v111.75a56.3,56.3,0,0,1-17.19,0Z"/><path class="cls-52" d="M5638,1159.82c0-25.13,20.94-33.72,54-33.72a262.41,262.41,0,0,1,44.52,3.3,40.43,40.43,0,0,1,0,14.55c-14.55-2-24.91-2.64-42.32-2.64-20.28,0-39,2.42-39,21.82v43c0,19.39,18.73,21.82,39,21.82a247.46,247.46,0,0,0,42.32-3.31,40.42,40.42,0,0,1,0,14.55,243.34,243.34,0,0,1-44.52,4.19c-33.29,0-54-9-54-33.73Z"/></svg>