<svg id="Layer_1" data-name="Layer 1" xmlns="http://www.w3.org/2000/svg" xmlns:xlink="http://www.w3.org/1999/xlink" viewBox="0 0 1623.06 1536.61"><defs><style>.cls-1{fill:none;}.cls-2{isolation:isolate;}.cls-3{clip-path:url(#clip-path);}.cls-4{fill:#8f269b;}.cls-5{fill:#9327a0;}.cls-6{clip-path:url(#clip-path-2);}.cls-7{fill:#701e7a;}.cls-8{fill:#792083;}.cls-9{fill:#9829a6;}.cls-10{fill:#6c1d76;}.cls-11{clip-path:url(#clip-path-3);}.cls-12{fill:#8a2596;}.cls-13{fill:#782083;}.cls-14{clip-path:url(#clip-path-4);}.cls-15{fill:#751f7f;}.cls-16{fill:#792084;}.cls-17{fill:#7d2288;}.cls-18{fill:#82238d;}.cls-19{fill:#862492;}.cls-20{fill:#ba32ca;}.cls-21{fill:#006345;}.cls-22{fill:#00c08e;}.cls-23{fill:#009567;}.cls-24{fill:#00895f;}.cls-25{fill:#009467;}.cls-26{clip-path:url(#clip-path-5);}.cls-27{fill:#008f63;}.cls-28{fill:#008b60;}.cls-29{fill:#00875d;}.cls-30{fill:#00835a;}.cls-31{fill:#007f58;}.cls-32{clip-path:url(#clip-path-6);}.cls-33{fill:#008562;}.cls-34{clip-path:url(#clip-path-7);}.cls-35{fill:#008f6a;}.cls-36{fill:#008a66;}.cls-37{fill:#00b183;}.cls-38{clip-path:url(#clip-path-8);}.cls-39{fill:#00a379;}.cls-40{fill:#009e75;}.cls-41{clip-path:url(#clip-path-9);}.cls-42{fill:#009971;}.cls-43{fill:#00946e;}.cls-44{fill:#00ce99;}.cls-45{clip-path:url(#clip-path-10);}.cls-46{fill:#007b55;}.cls-47{fill:#007752;}.cls-48{fill:#00734f;}.cls-49{fill:#006f4d;}.cls-50{fill:#006b4a;}.cls-51{fill:#006747;}.cls-52{fill:#00a06f;}</style><clipPath id="clip-path"><path class="cls-1" d="M1121.82,915.87l-16.52-12.94c14.84-.26,31-.54,46.34-.54,13.91,0,27.07.23,37.79.92L1206,916.25c-10.72-.69-23.88-.92-37.79-.92C1152.86,915.33,1136.66,915.61,1121.82,915.87Z"/></clipPath><clipPath id="clip-path-2"><path class="cls-1" d="M1206,916.25l-16.52-12.94c-11.08-22-28.06-59.51-41.42-88.83l16.52,12.94C1177.89,856.74,1194.87,894.29,1206,916.25Z"/></clipPath><clipPath id="clip-path-3"><path class="cls-1" d="M1146.11,451.45l16.51,12.94c-13.81-10.82-30.67-17.33-51.52-17.32l-16.52-12.95C1115.43,434.12,1132.29,440.63,1146.11,451.45Z"/></clipPath><clipPath id="clip-path-4"><path class="cls-1" d="M1011,518.05l-16.52-12.94c22.54-36.4,54.08-70.19,100.11-71l16.52,12.95C1065.07,447.86,1033.53,481.65,1011,518.05Z"/></clipPath><clipPath id="clip-path-5"><path class="cls-1" d="M411.7,1057.32l-16.52-13c-14.06-11-26.14-27.47-36.42-49.51l16.52,12.94C385.55,1029.84,397.63,1046.3,411.7,1057.32Z"/></clipPath><clipPath id="clip-path-6"><path class="cls-1" d="M462.83,1074.2c-19.73-.07-36.72-5.76-51.38-17.24L394.93,1044c14.66,11.48,31.65,17.17,51.38,17.24Z"/></clipPath><clipPath id="clip-path-7"><path class="cls-1" d="M462.83,1074.2l0,0-.09-.07-.09-.07-.1-.08-.09-.07-.1-.08-.09-.07-1-.81-1.9-1.49-2-1.57-2.05-1.61-2.07-1.62-2.05-1.6-2-1.57-1.9-1.49-.91-.71h.4c20.59-.36,40.11-7.65,58-21.69,1.72-1.35,3.43-2.77,5.13-4.24l16.52,12.94q-2.55,2.22-5.13,4.24c-17.9,14-37.42,21.34-58,21.69Z"/></clipPath><clipPath id="clip-path-8"><path class="cls-1" d="M554.2,1017.14l-.57-.44-.6-.47-.62-.49-.63-.5-.63-.49-.62-.49-.61-.47-.56-.44-5.84-4.58-1.53-1.19-1.5-1.18-1.44-1.13-1.36-1.07q4.32-6,8.62-12.61l16.52,12.94Q558.53,1011.19,554.2,1017.14Z"/></clipPath><clipPath id="clip-path-9"><path class="cls-1" d="M554.2,1017.14A194.58,194.58,0,0,1,532,1043.08l-16.52-12.94a196,196,0,0,0,22.19-25.94Z"/></clipPath><clipPath id="clip-path-10"><path class="cls-1" d="M410.81,1057.74l-16.52-12.94c14.91,11.68,32.21,17.44,52.35,17.43,20.81-.36,40.53-7.73,58.6-21.92,14.52-11.39,28.21-27.16,41.85-48.25L563.6,1005c-13.63,21.09-27.33,36.86-41.84,48.25-18.07,14.19-37.79,21.56-58.6,21.92C443,1075.18,425.72,1069.42,410.81,1057.74Z"/></clipPath></defs><g class="cls-2"><g class="cls-2"><g class="cls-3"><g class="cls-2"><path class="cls-4" d="M1121.82,915.87l-16.52-12.94c14.84-.26,31-.54,46.34-.54,4.8,0,9.51,0,14.06.09l16.52,12.94c-4.55-.06-9.26-.09-14.06-.09-15.3,0-31.5.28-46.34.54"/><path class="cls-5" d="M1182.22,915.42l-16.52-12.94c8.64.12,16.71.38,23.73.83L1206,916.25c-7-.45-15.09-.71-23.73-.83"/></g></g></g><g class="cls-2"><g class="cls-6"><g class="cls-2"><path class="cls-7" d="M1206,916.25l-16.52-12.94c-11.08-22-28.06-59.51-41.42-88.83l16.52,12.94c13.36,29.32,30.34,66.87,41.42,88.83"/></g></g></g><polygon class="cls-8" points="902.37 1078.47 885.85 1065.53 986.33 905 1002.85 917.94 902.37 1078.47"/><polygon class="cls-9" points="1002.85 917.94 986.33 905 1105.3 902.93 1121.82 915.87 1002.85 917.94"/><polygon class="cls-10" points="1164.53 827.42 1148.01 814.48 1075.34 652.34 1091.86 665.28 1164.53 827.42"/><g class="cls-2"><g class="cls-11"><g class="cls-2"><path class="cls-4" d="M1111.1,447.07l-16.52-12.95,1.78,0,16.52,12.94h-1.78"/><path class="cls-5" d="M1112.88,447.08l-16.52-12.94a86.43,86.43,0,0,1,21.22,2.92L1134.1,450a86.5,86.5,0,0,0-21.22-2.92"/><path class="cls-4" d="M1134.1,450l-16.52-12.94A78.22,78.22,0,0,1,1138.2,446l16.52,12.94A78.22,78.22,0,0,0,1134.1,450"/><path class="cls-12" d="M1154.72,458.89,1138.2,446a84.56,84.56,0,0,1,7.91,5.5l16.51,12.94a84.41,84.41,0,0,0-7.9-5.5"/></g></g></g><polygon class="cls-13" points="665.14 1082.59 648.62 1069.65 994.47 505.11 1010.99 518.05 665.14 1082.59"/><g class="cls-2"><g class="cls-14"><g class="cls-2"><path class="cls-15" d="M1011,518.05l-16.52-12.94A236.59,236.59,0,0,1,1014,477.77l16.51,12.94a237.71,237.71,0,0,0-19.5,27.34"/><path class="cls-16" d="M1030.49,490.71,1014,477.77a164.35,164.35,0,0,1,13.63-14.5l16.52,12.94a166,166,0,0,0-13.64,14.5"/><path class="cls-17" d="M1044.13,476.21l-16.52-12.94a130.29,130.29,0,0,1,11.4-9.54l16.52,12.94a132.07,132.07,0,0,0-11.4,9.54"/><path class="cls-18" d="M1055.53,466.67,1039,453.73a111,111,0,0,1,10.68-7l16.52,12.94a109.72,109.72,0,0,0-10.68,7"/><path class="cls-19" d="M1066.21,459.65l-16.52-12.94a99.79,99.79,0,0,1,11.06-5.49l16.52,12.94a98.93,98.93,0,0,0-11.06,5.49"/><path class="cls-12" d="M1077.27,454.16l-16.52-12.94a91.25,91.25,0,0,1,13.11-4.38l16.52,12.94a91.25,91.25,0,0,0-13.11,4.38"/><path class="cls-4" d="M1090.38,449.78l-16.52-12.94a91.92,91.92,0,0,1,20.72-2.72l16.52,12.95a91.36,91.36,0,0,0-20.72,2.71"/></g></g></g><path class="cls-20" d="M1111.1,447.07c44.56,0,70.86,29.71,88.26,67.71l254,554.13-550.94,9.56,100.48-160.53,119-2.07c14.84-.26,31-.54,46.34-.54,13.91,0,27.07.23,37.79.92-11.08-22-28.06-59.51-41.42-88.83l-72.67-162.14L838.64,1079.57l-173.5,3L1011,518.05C1033.53,481.65,1065.07,447.86,1111.1,447.07Z"/></g><g class="cls-2"><polygon class="cls-21" points="282.57 446.92 299.09 459.86 120.3 462.96 103.78 450.02 282.57 446.92"/><polygon class="cls-22" points="282.57 446.92 299.09 459.86 481.75 860.06 465.23 847.12 282.57 446.92"/><polygon class="cls-23" points="283.2 445.94 299.72 458.88 482.26 858.83 465.75 845.89 283.2 445.94"/><polygon class="cls-24" points="718.64 439.35 735.16 452.29 482.09 860.82 465.57 847.88 718.64 439.35"/><polygon class="cls-25" points="103.78 450.02 120.3 462.96 375.28 1007.8 358.76 994.86 103.78 450.02"/><g class="cls-2"><g class="cls-26"><g class="cls-2"><path class="cls-27" d="M358.76,994.86l16.52,12.94q3.27,7,6.79,13.29l-16.52-12.94q-3.53-6.27-6.79-13.29"/><path class="cls-28" d="M365.55,1008.15l16.52,12.94a150.62,150.62,0,0,0,10.16,15.82L375.71,1024a153.32,153.32,0,0,1-10.16-15.82"/><path class="cls-29" d="M375.71,1024l16.52,12.94a116.72,116.72,0,0,0,8.09,9.83L383.8,1033.8a116.72,116.72,0,0,1-8.09-9.83"/><path class="cls-30" d="M383.8,1033.8l16.52,12.94a97.37,97.37,0,0,0,7.1,7L390.9,1040.8a97.37,97.37,0,0,1-7.1-7"/><path class="cls-31" d="M390.9,1040.8l16.52,12.94c1.41,1.25,2.83,2.44,4.28,3.58l-16.52-13c-1.45-1.13-2.87-2.32-4.28-3.57"/></g></g></g><polygon class="cls-21" points="890.36 436.37 906.87 449.31 735.16 452.29 718.64 439.35 890.36 436.37"/><g class="cls-2"><g class="cls-32"><g class="cls-2"><path class="cls-33" d="M490,1049.39l16.52,12.95a91.41,91.41,0,0,1-43.29,11.86c-19.91,0-37-5.69-51.81-17.26L394.91,1044c14.76,11.57,31.89,17.27,51.8,17.26A91.3,91.3,0,0,0,490,1049.39"/></g></g></g><g class="cls-2"><g class="cls-34"><g class="cls-2"><path class="cls-35" d="M511,1034.35l16.52,12.94c-2.06,1.84-4.14,3.57-6.24,5.22q-1.72,1.35-3.46,2.62l-16.52-12.94q1.74-1.28,3.46-2.62,3.15-2.47,6.24-5.22"/><path class="cls-36" d="M501.26,1042.19l16.52,12.94a111.83,111.83,0,0,1-11.26,7.21L490,1049.39a110,110,0,0,0,11.26-7.2"/><path class="cls-33" d="M490,1049.39l16.52,12.95a91.41,91.41,0,0,1-43.29,11.86c-19.91,0-37-5.69-51.81-17.26L394.91,1044c14.76,11.57,31.89,17.27,51.8,17.26A91.3,91.3,0,0,0,490,1049.39"/></g></g></g><polygon class="cls-37" points="890.36 436.37 906.87 449.31 562.83 1004.53 546.31 991.59 890.36 436.37"/><polygon class="cls-24" points="892.03 435.37 908.55 448.31 563.6 1005 547.09 992.06 892.03 435.37"/><g class="cls-2"><g class="cls-38"><g class="cls-2"><path class="cls-39" d="M546.31,991.59l16.52,12.94q-2,3.16-4.08,6.15l-16.52-12.94q2-3,4.08-6.15"/><path class="cls-40" d="M542.23,997.74l16.52,12.94q-5.79,8.49-11.62,15.74l-16.52-12.94q5.83-7.26,11.62-15.74"/></g></g></g><g class="cls-2"><g class="cls-41"><g class="cls-2"><path class="cls-40" d="M542.23,997.74l16.52,12.94q-5.79,8.49-11.62,15.74l-16.52-12.94q5.83-7.26,11.62-15.74"/><path class="cls-42" d="M530.61,1013.48l16.52,12.94q-5,6.22-10.1,11.6l-16.52-12.94q5.09-5.37,10.1-11.6"/><path class="cls-43" d="M520.51,1025.08,537,1038q-4.72,5-9.55,9.27L511,1034.35q4.83-4.29,9.55-9.27"/></g></g></g><path class="cls-44" d="M890.36,436.37,546.31,991.59c-13.57,21-27.17,36.66-41.59,48-17.9,14-37.42,21.33-58,21.69-38.87,0-67.12-21.73-87.95-66.4L103.78,450l178.79-3.1,182.66,400.2L718.65,439.35Z"/><g class="cls-2"><g class="cls-45"><g class="cls-2"><path class="cls-31" d="M547.09,992.06,563.6,1005c-1.37,2.13-2.74,4.19-4.12,6.21L543,998.27c1.37-2,2.74-4.08,4.12-6.21"/><path class="cls-46" d="M543,998.27l16.51,12.94q-5.79,8.5-11.64,15.77L531.32,1014q5.86-7.27,11.65-15.77"/><path class="cls-47" d="M531.32,1014,547.84,1027q-5,6.26-10.15,11.66l-16.52-12.94c3.42-3.61,6.79-7.49,10.15-11.66"/><path class="cls-48" d="M521.17,1025.7l16.52,12.94q-4.76,5-9.6,9.32L511.57,1035q4.84-4.3,9.6-9.32"/><path class="cls-49" d="M511.57,1035,528.09,1048c-2.1,1.86-4.2,3.62-6.33,5.29q-1.75,1.38-3.53,2.67L501.71,1043q1.77-1.29,3.53-2.67,3.19-2.5,6.33-5.29"/><path class="cls-50" d="M501.71,1043l16.52,12.94a110.18,110.18,0,0,1-11.35,7.27l-16.52-12.94a110.18,110.18,0,0,0,11.35-7.27"/><path class="cls-51" d="M490.36,1050.25l16.52,12.94a92.22,92.22,0,0,1-43.72,12c-20.14,0-37.44-5.75-52.35-17.43l-16.52-12.94c14.91,11.68,32.21,17.44,52.35,17.43a92.22,92.22,0,0,0,43.72-12"/></g></g></g><path class="cls-52" d="M718.16,438.39l173.87-3L547.09,992.06c-13.64,21.09-27.33,36.86-41.85,48.25-18.07,14.19-37.79,21.56-58.6,21.92-39.27,0-67.75-21.88-88.74-66.89L102.25,449.09l181-3.15,182.55,400ZM546.31,991.6,890.36,436.37l-171.72,3L465.57,847.88l-183-401L103.78,450l255,544.84c20.83,44.67,49.08,66.42,86.25,66.42,22.29-.38,41.81-7.67,59.71-21.71,14.41-11.32,28-27,41.59-48"/></g></svg>