<svg id="Layer_1" data-name="Layer 1" xmlns="http://www.w3.org/2000/svg"
  xmlns:xlink="http://www.w3.org/1999/xlink" viewBox="0 0 1080 1080">
  <defs>
    <style>.cls-1{fill:#f37021;}.cls-2{fill:url(#linear-gradient);}</style>
    <linearGradient id="linear-gradient" x1="557.14" y1="98.6" x2="504.73" y2="875.04"
      gradientUnits="userSpaceOnUse">
      <stop offset="0" stop-color="#00b283" />
      <stop offset="1" stop-color="#1695c3" />
    </linearGradient>
  </defs>
  <path class="cls-1"
    d="M440.53,782.51,296.12,638.1c-14.77,14.75-29.42,29.63-44.37,44.19-6.54,6.38-8.95,13.08-5.5,21.67s10.21,11.32,18.62,10.93c8.58-.39,27.16-2.16,27.16-2.16l-22,75.51a16.37,16.37,0,0,0,20.26,20.3l75.13-21.68S364.27,806,364,814.64s3.16,15,11.57,18.18c7.93,3,14.36.82,20.22-5.14C410.6,812.57,425.23,797.17,440.53,782.51Z" />
  <path class="cls-2"
    d="M667.89,861.09l32.73-51.75a117.06,117.06,0,0,0,18-66.94l-4.52-121.08-1.29,1.29a17,17,0,0,1,4.45-5.85,420.47,420.47,0,0,0,67.75-78.45c46.26-69.19,73.46-145.53,85-227.66,4.1-29.11,5.8-58.19.86-87.43-.73-4.36-1.89-7.72-4.25-9.89l0,0,0,0c-2.17-2.36-5.53-3.52-9.89-4.25-29.24-4.94-58.32-3.24-87.43.86-82.14,11.58-158.47,38.78-227.66,85a420.47,420.47,0,0,0-78.45,67.75,17,17,0,0,1-5.85,4.45l1.29-1.29L337.6,361.33a117.06,117.06,0,0,0-66.94,18.05l-51.75,32.73a27.71,27.71,0,0,0,2.87,48.42l160.83,76.81L340.69,572a27.7,27.7,0,0,0-1.95,41l10.19,10.2-13.57,13.57,108,107.95,13.57-13.57,10.2,10.19a27.7,27.7,0,0,0,41-2l34.62-41.93,76.81,160.84A27.71,27.71,0,0,0,667.89,861.09Zm-79.76-390.5a15,15,0,0,1,21.28,21.28L497.63,603.65a15,15,0,0,1-21.28-21.28Zm164-144.36c.28.28.57.55.85.84s.56.57.84.85c22.34,23.34,22,61.64-1,84.48a60.25,60.25,0,1,1-85.21-85.21C690.44,304.26,728.74,303.89,752.08,326.23Z" />
</svg>
