<?xml version="1.0" encoding="utf-8"?>
<svg viewBox="0 0 500 500" xmlns="http://www.w3.org/2000/svg">
  <defs>
    <linearGradient id="linear-gradient" x1="557.14" y1="98.6" x2="504.73" y2="875.04" gradientUnits="userSpaceOnUse" gradientTransform="matrix(0.726841, 0, 0, 0.726841, -142.744435, -136.524329)">
      <stop offset="0" stop-color="#00b283"/>
      <stop offset="1" stop-color="#1695c3"/>
    </linearGradient>
  </defs>
  <path class="cls-1" d="M 177.45 432.235 L 72.488 327.272 C 61.752 337.993 51.104 348.809 40.238 359.392 C 35.484 364.029 33.733 368.899 36.24 375.142 C 38.747 381.386 43.661 383.369 49.774 383.087 C 56.01 382.803 69.515 381.517 69.515 381.517 L 53.525 436.4 C 50.966 445.195 58.887 453.461 67.783 451.279 C 67.94 451.24 68.095 451.199 68.251 451.155 L 122.858 435.397 C 122.858 435.397 122.022 449.309 121.825 455.588 C 121.629 461.869 124.122 466.491 130.235 468.803 C 135.999 470.983 140.673 469.399 144.932 465.067 C 155.696 454.084 166.33 442.891 177.45 432.235 Z" style="fill: rgb(243, 112, 33);" transform="matrix(1, 0, 0, 1, 2.842170943040401e-14, 3.552713678800501e-15)"/>
  <path class="cls-2" d="M 342.705 489.35 L 366.495 451.736 C 375.667 437.211 380.228 420.249 379.577 403.082 L 376.292 315.076 L 375.355 316.014 C 376.11 314.377 377.213 312.925 378.589 311.761 C 397.292 294.858 413.833 275.706 427.833 254.741 C 461.456 204.451 481.226 148.964 489.614 89.268 C 492.594 68.11 493.83 46.974 490.239 25.721 C 489.709 22.552 488.865 20.11 487.15 18.532 C 485.572 16.817 483.131 15.973 479.962 15.443 C 458.709 11.852 437.572 13.088 416.414 16.068 C 356.712 24.485 301.232 44.256 250.941 77.85 C 229.976 91.85 210.823 108.39 193.921 127.093 C 192.756 128.468 191.305 129.572 189.669 130.328 L 190.606 129.39 L 102.637 126.105 C 85.466 125.464 68.503 130.038 53.983 139.224 L 16.368 163.014 C 3.266 171.303 4.05 190.668 17.781 197.87 C 18.003 197.986 18.228 198.099 18.455 198.207 L 135.352 254.036 L 104.883 279.228 C 95.697 286.79 95.039 300.627 103.466 309.028 L 110.872 316.442 L 101.009 326.305 L 179.508 404.768 L 189.371 394.905 L 196.785 402.311 C 205.195 410.728 219.032 410.054 226.585 400.857 L 251.749 370.381 L 307.577 487.286 C 314.315 501.249 333.642 502.682 342.366 489.865 C 342.481 489.694 342.595 489.523 342.705 489.35 Z M 284.733 205.519 C 290.685 199.566 300.85 202.289 303.03 210.422 C 304.042 214.196 302.962 218.223 300.2 220.987 L 218.954 302.233 C 213 308.186 202.834 305.462 200.655 297.33 C 199.645 293.556 200.722 289.528 203.486 286.766 L 284.733 205.519 Z M 403.934 100.592 C 404.138 100.796 404.348 100.992 404.552 101.203 C 404.755 101.414 404.959 101.618 405.162 101.821 C 421.4 118.786 421.153 146.624 404.436 163.224 C 380.596 187.063 339.892 176.155 331.167 143.592 C 327.117 128.479 331.438 112.353 342.502 101.29 C 359.096 84.624 386.933 84.355 403.898 100.592 L 403.934 100.592 Z" style="fill: url('#linear-gradient');" transform="matrix(1, 0, 0, 1, 2.842170943040401e-14, 3.552713678800501e-15)"/>
</svg>